<svg width="526" height="230" xmlns="http://www.w3.org/2000/svg" xmlns:xlink="http://www.w3.org/1999/xlink" overflow="hidden"><defs><clipPath id="clip0"><rect x="0" y="0" width="526" height="230"/></clipPath><clipPath id="clip1"><rect x="351" y="31" width="25" height="22"/></clipPath><clipPath id="clip2"><rect x="351" y="31" width="25" height="22"/></clipPath><clipPath id="clip3"><rect x="351" y="31" width="25" height="22"/></clipPath><clipPath id="clip4"><rect x="402" y="57" width="24" height="25"/></clipPath><clipPath id="clip5"><rect x="402" y="57" width="24" height="25"/></clipPath><clipPath id="clip6"><rect x="402" y="57" width="24" height="25"/></clipPath><clipPath id="clip7"><rect x="418" y="103" width="25" height="32"/></clipPath><clipPath id="clip8"><rect x="418" y="103" width="25" height="32"/></clipPath><clipPath id="clip9"><rect x="418" y="103" width="25" height="32"/></clipPath><clipPath id="clip10"><rect x="391" y="158" width="24" height="25"/></clipPath><clipPath id="clip11"><rect x="391" y="158" width="24" height="25"/></clipPath><clipPath id="clip12"><rect x="391" y="158" width="24" height="25"/></clipPath><clipPath id="clip13"><rect x="331" y="174" width="26" height="28"/></clipPath><clipPath id="clip14"><rect x="331" y="174" width="26" height="28"/></clipPath><clipPath id="clip15"><rect x="331" y="174" width="26" height="28"/></clipPath><clipPath id="clip16"><rect x="281" y="160" width="24" height="30"/></clipPath><clipPath id="clip17"><rect x="281" y="160" width="24" height="30"/></clipPath><clipPath id="clip18"><rect x="281" y="160" width="24" height="30"/></clipPath><clipPath id="clip19"><rect x="251" y="123" width="32" height="17"/></clipPath><clipPath id="clip20"><rect x="251" y="123" width="32" height="17"/></clipPath><clipPath id="clip21"><rect x="251" y="123" width="32" height="17"/></clipPath><clipPath id="clip22"><rect x="259" y="62" width="25" height="22"/></clipPath><clipPath id="clip23"><rect x="259" y="62" width="25" height="22"/></clipPath><clipPath id="clip24"><rect x="259" y="62" width="25" height="22"/></clipPath><clipPath id="clip25"><rect x="299" y="38" width="23" height="17"/></clipPath><clipPath id="clip26"><rect x="299" y="38" width="23" height="17"/></clipPath><clipPath id="clip27"><rect x="299" y="38" width="23" height="17"/></clipPath><clipPath id="clip28"><rect x="77" y="65" width="137" height="142"/></clipPath><clipPath id="clip29"><rect x="77" y="65" width="137" height="142"/></clipPath><clipPath id="clip30"><rect x="77" y="65" width="137" height="142"/></clipPath><clipPath id="clip31"><rect x="90" y="60" width="114" height="98"/></clipPath><clipPath id="clip32"><rect x="90" y="60" width="114" height="98"/></clipPath><clipPath id="clip33"><rect x="90" y="60" width="114" height="98"/></clipPath></defs><g clip-path="url(#clip0)"><rect x="0" y="0" width="526" height="229.667" fill="#FFFFFF"/><rect x="0" y="0" width="526" height="229.667" fill="#F2F2F2"/><path d="M0 206.7 526 206.701" stroke="#7C7C7B" stroke-width="2" stroke-miterlimit="8" fill="none" fill-rule="evenodd"/><path d="M185.5 104.349 266.692 104.349" stroke="#7C7C7B" stroke-width="1.33333" stroke-miterlimit="8" fill="#F2F2F2" fill-rule="evenodd"/><path d="M266.5 115.333C266.5 70.1111 303.213 33.4516 348.5 33.4516 393.787 33.4516 430.5 70.1111 430.5 115.333 430.5 160.555 393.787 197.214 348.5 197.214 303.213 197.214 266.5 160.555 266.5 115.333Z" stroke="#7C7C7B" stroke-width="1.33333" stroke-miterlimit="8" fill="#F2F2F2" fill-rule="evenodd"/><path d="M344.5 43.4371C344.5 32.9589 353.007 24.4646 363.5 24.4646 373.993 24.4646 382.5 32.9589 382.5 43.4371 382.5 53.9153 373.993 62.4096 363.5 62.4096 353.007 62.4096 344.5 53.9153 344.5 43.4371Z" stroke="#7C7C7B" stroke-width="1.33333" stroke-miterlimit="8" fill="#F2F2F2" fill-rule="evenodd"/><g clip-path="url(#clip1)"><g clip-path="url(#clip2)"><g clip-path="url(#clip3)"><path d="M3.17118 20.6264C3.01533 20.5609 2.81414 20.3817 2.7265 20.2303 2.68101 20.1518 2.65775 18.3763 2.6381 13.488 2.61441 7.58865 2.6024 6.85048 2.52991 6.83651 2.46587 6.8242 2.3304 7.22404 1.89815 8.70149 1.59551 9.73582 1.31307 10.6372 1.2705 10.7046 1.1597 10.8799 0.881285 11.0348 0.676514 11.035 0.398389 11.0354 0.189165 10.8958 0.0725757 10.6322-0.0538651 10.3464-0.116441 10.6009 0.777873 7.76429 1.15707 6.56157 1.52639 5.47676 1.59857 5.35357 1.74786 5.09886 1.96697 4.89972 2.28541 4.72935 2.49973 4.6147 2.55544 4.6116 4.67631 4.5964 6.08412 4.5863 6.92138 4.60064 7.05704 4.63717 7.34339 4.71427 7.7338 4.99351 7.92543 5.25827 8.08555 5.47953 8.20368 5.82671 9.1927 8.983L9.62697 10.3689 10.277 11.0275C10.6345 11.3898 11.0206 11.7555 11.1349 11.8404L11.3428 11.9947 12.4835 11.9947C13.3654 11.9947 13.6569 11.9776 13.7681 11.9191 13.9573 11.8197 15.4313 10.3281 15.4313 10.2361 15.4313 10.127 16.8709 5.59243 16.9609 5.41818 17.0999 5.14915 17.4969 4.81118 17.8128 4.69297 18.1021 4.58474 18.1871 4.58144 20.3033 4.59644 22.4442 4.61161 22.4992 4.61465 22.7136 4.72935 23.032 4.89972 23.2512 5.09886 23.4004 5.35357 23.4727 5.47676 23.8419 6.56157 24.2212 7.76429 25.1155 10.6009 25.0529 10.3464 24.9264 10.6322 24.6861 11.1755 23.9488 11.1781 23.699 10.6366 23.6446 10.5187 23.3639 9.61189 23.0753 8.62154 22.4223 6.38081 22.3934 6.35283 22.3749 7.94424L22.3622 9.0363 23.2336 11.8348 24.1049 14.6333 23.2462 14.66 22.3875 14.6866 22.3609 17.3785C22.3313 20.3615 22.3425 20.2707 21.9752 20.5326 21.8381 20.6304 21.7313 20.6568 21.472 20.6568 21.1162 20.6568 20.9506 20.5739 20.7384 20.2898 20.6312 20.1463 20.6281 20.0751 20.6138 17.399L20.599 14.6553 20.214 14.6709 19.8289 14.6866 19.8023 17.3785C19.7728 20.3615 19.784 20.2707 19.4166 20.5326 19.2795 20.6304 19.1727 20.6568 18.9133 20.6568 18.5576 20.6568 18.392 20.5739 18.1797 20.2898 18.0726 20.1463 18.0695 20.0751 18.0551 17.4013L18.0404 14.66 17.1054 14.66C16.2394 14.66 16.1725 14.653 16.1992 14.5667 16.2151 14.5154 16.6365 13.1586 17.1356 11.5517L18.0432 8.63001 18.0432 7.75688C18.0432 6.91919 18.0091 6.72894 17.8821 6.8581 17.8572 6.88337 17.5931 7.73161 17.295 8.74307 16.9971 9.75453 16.7281 10.6301 16.6973 10.6888 16.6278 10.8212 16.6875 10.7568 15.2402 12.2612 14.5775 12.9502 14.0134 13.5694 13.9869 13.6373 13.9601 13.7061 13.9388 15.2051 13.9388 17.0236 13.9388 20.6047 13.9545 20.43 13.6183 20.6037 13.3035 20.7666 12.9235 20.6609 12.7466 20.3615 12.6711 20.2337 12.6594 19.9996 12.6594 18.6179 12.6594 17.1394 12.6522 17.0154 12.5619 16.9336 12.4352 16.819 12.3241 16.822 12.2146 16.9429 12.1367 17.0291 12.1264 17.2253 12.1264 18.6247 12.1264 19.9365 12.1125 20.2358 12.0455 20.3653 11.8946 20.6572 11.4846 20.7677 11.1651 20.6026 10.8383 20.4335 10.8471 20.5381 10.8471 16.8216L10.8471 13.4342 10.6501 13.2076C10.5418 13.0828 10.024 12.5371 9.49952 11.9947 8.40592 10.8638 8.37697 10.8322 8.30171 10.6888 8.27095 10.6301 8.00197 9.75458 7.704 8.74312 7.40602 7.73166 7.14184 6.88337 7.11695 6.8581 7.09206 6.83278 7.04563 6.8282 7.01375 6.84792 6.97255 6.8734 6.95549 8.77297 6.95464 13.4238 6.95261 19.6864 6.9492 19.9731 6.85421 20.1823 6.70352 20.5142 6.4669 20.6568 6.06684 20.6568 5.71109 20.6568 5.54552 20.5739 5.33332 20.2898 5.22561 20.1456 5.22287 20.0729 5.19674 16.6769L5.17008 13.2112 5.04425 13.1094C4.87312 12.9708 4.68495 12.9814 4.52801 13.1383L4.39717 13.2692 4.39516 16.6165C4.39314 19.7656 4.38811 19.9767 4.29475 20.1823 4.15946 20.4802 3.91375 20.6453 3.57498 20.6659 3.4257 20.675 3.24361 20.6572 3.17034 20.6264ZM11.8464 11.3355C11.4223 11.1773 11.0795 10.8191 10.9325 10.3804 10.5239 9.16045 11.7802 8.01914 12.9688 8.53044 13.348 8.6936 13.6987 9.08763 13.8123 9.47809 14.0173 10.1835 13.6871 10.9345 13.0185 11.2831 12.7874 11.4036 12.1103 11.4339 11.8464 11.3355ZM4.09344 3.62036C3.69715 3.468 3.31624 3.1041 3.10615 2.67714 2.94939 2.35854 2.93144 2.27476 2.93283 1.86771 2.93485 1.49271 2.95856 1.36152 3.07329 1.1141 3.26164 0.707969 3.5304 0.424905 3.92977 0.212016 4.55545-0.121495 5.33849-0.0575816 5.93678 0.375843 6.40943 0.718209 6.73582 1.47819 6.66786 2.07805 6.59312 2.73784 6.08827 3.39737 5.48534 3.62296 5.09468 3.76913 4.4774 3.76797 4.09344 3.62036ZM19.5358 3.68557C19.0564 3.5285 18.5583 3.08435 18.346 2.62461 18.2525 2.42214 18.2299 2.27454 18.2299 1.86676 18.2299 1.41276 18.246 1.32851 18.3858 1.0524 18.5706 0.687281 18.9563 0.309448 19.3087 0.148147 19.511 0.0555746 19.665 0.0316201 20.0688 0.0299017 20.5172 0.0280884 20.6098 0.0447296 20.8771 0.176004 21.2466 0.357457 21.5783 0.680453 21.7623 1.03811 21.8734 1.25396 21.9053 1.40391 21.9238 1.79753 21.9454 2.25491 21.9364 2.31081 21.7886 2.62628 21.5778 3.07695 21.3667 3.306 20.9635 3.5217 20.6646 3.68167 20.5769 3.70248 20.1488 3.7151 19.8849 3.72287 19.6091 3.70959 19.5358 3.68557Z" fill="#D68D87" transform="matrix(1 0 0 1.01389 351 31.9537)"/></g></g></g><path d="M395.5 70.398C395.5 59.9198 404.007 51.4255 414.5 51.4255 424.993 51.4255 433.5 59.9198 433.5 70.398 433.5 80.8763 424.993 89.3705 414.5 89.3705 404.007 89.3705 395.5 80.8763 395.5 70.398Z" stroke="#7C7C7B" stroke-width="1.33333" stroke-miterlimit="8" fill="#F2F2F2" fill-rule="evenodd"/><g clip-path="url(#clip4)"><g clip-path="url(#clip5)"><g clip-path="url(#clip6)"><path d="M1.69388 23.8757C1.02685 23.6703 0.519283 23.2457 0.180496 22.6096 0.00763047 22.2851 0 21.8345 0 11.9585 0 2.08233 0.00768537 1.63177 0.180496 1.3072 0.433152 0.832858 0.80556 0.453551 1.25878 0.208997L1.64609 0 11.9585 0 22.2708 0 22.6581 0.208997C23.1113 0.453551 23.4837 0.832858 23.7364 1.3072 23.9092 1.63177 23.9168 2.08233 23.9168 11.9585L23.9168 22.2708 23.7079 22.6581C23.4633 23.1113 23.084 23.4837 22.6096 23.7364 22.2857 23.9088 21.8202 23.9176 12.1037 23.9336 6.51177 23.9428 1.82739 23.9168 1.69388 23.8757ZM13.2338 21.2875C13.3946 21.1419 13.4109 20.9412 13.4109 19.1088 13.4109 17.9986 13.4353 17.0904 13.4653 17.0904 13.4952 17.0904 13.7535 17.201 14.0393 17.3362 15.1081 17.8418 15.9357 19.0535 16.086 20.3329 16.1628 20.9863 16.3888 21.2368 16.7786 21.1003 17.0216 21.0152 17.0442 20.9621 17.0705 20.4147 17.1558 18.6435 15.7011 16.7517 13.774 16.1278L13.4109 16.0103 13.4109 14.7938 13.4109 13.5774 13.9437 13.6325C15.5173 13.7948 16.911 15.2004 17.0603 16.7754 17.1223 17.4299 17.3039 17.7682 17.5933 17.7682 18.1159 17.7682 18.2589 17.3055 18.0485 16.2963 17.6535 14.4023 16.0831 12.9209 14.1428 12.6122L13.4109 12.4957 13.4109 11.2965 13.4109 10.0972 14.4518 10.137C15.7654 10.1872 16.3378 10.4323 17.1236 11.281 17.7088 11.9131 18.0174 12.5901 18.1206 13.4683 18.1696 13.885 18.2351 14.0395 18.4117 14.1553 18.6181 14.2905 18.6626 14.2896 18.8817 14.146 19.1446 13.9737 19.1501 13.9551 19.1243 13.3197 19.0824 12.2842 18.5329 11.1814 17.6364 10.3336 16.7203 9.46715 15.6143 9.05357 14.2136 9.05357L13.4109 9.05357 13.4109 7.79474 13.4109 6.53598 14.7005 6.53598C16.0983 6.53598 16.7402 6.66412 17.3867 7.07225 18.3059 7.65247 18.9923 8.74805 19.0946 9.79816 19.1247 10.1075 19.2157 10.437 19.2968 10.5302 19.4937 10.7564 19.8277 10.7446 20.0457 10.5038 20.208 10.3244 20.2132 10.2449 20.1068 9.55967 19.948 8.53715 19.544 7.71943 18.8307 6.97657 17.7518 5.85299 16.6991 5.47466 14.6455 5.47229L13.4109 5.47091 13.4109 4.44545 13.4109 3.41999 15.3232 3.45809C17.0325 3.49215 17.2952 3.51967 17.7957 3.71714 18.9151 4.15863 19.9248 5.40829 20.0513 6.50862 20.1403 7.28188 20.1825 7.39888 20.4325 7.56264 20.6548 7.70832 20.6914 7.70825 20.9151 7.56155 21.2084 7.36939 21.2376 6.88523 21.0088 6.00677 20.5721 4.33 19.1252 2.92151 17.4777 2.56916 17.0958 2.48749 15.4656 2.46407 11.7163 2.4864 6.50727 2.51741 6.48553 2.51837 5.95071 2.74121 4.78136 3.22843 3.66308 4.35129 3.23227 5.47082 2.97876 6.1296 2.87569 7.24564 3.04906 7.45458 3.19618 7.63178 3.66649 7.64775 3.80211 7.48007 3.85596 7.41347 3.93062 7.08934 3.96803 6.75974 4.11263 5.48605 4.93304 4.35989 6.12923 3.79321 6.77763 3.48604 6.77931 3.48581 8.64202 3.45271L10.506 3.4196 10.506 4.44522 10.506 5.47083 9.36824 5.47221C8.69707 5.47303 7.97608 5.5336 7.61013 5.61987 5.8353 6.03822 4.38837 7.49568 4.02828 9.22764 3.81638 10.2468 3.94585 10.6995 4.44922 10.6995 4.77587 10.6995 4.8984 10.4917 4.98544 9.79003 5.14329 8.51726 5.91479 7.43606 7.06978 6.86895 7.61805 6.59976 7.72698 6.58252 9.07775 6.55123L10.506 6.51814 10.506 7.78581 10.506 9.0535 9.80013 9.0535C7.36358 9.0535 5.35181 10.7372 4.97459 13.0924 4.87669 13.7035 4.88284 13.8214 5.02378 14.0365 5.35024 14.5347 5.955 14.2153 5.955 13.5447 5.955 13.0433 6.31917 12.0394 6.67682 11.5548 7.35276 10.639 8.36903 10.1439 9.64246 10.1101L10.4576 10.0884 10.4844 11.299 10.5114 12.5098 9.85946 12.6178C7.8325 12.9537 6.10181 14.7904 5.97679 16.7383 5.93238 17.4304 5.94015 17.4636 6.18482 17.6238 6.41576 17.7752 6.45976 17.7768 6.66688 17.6411 6.84354 17.5253 6.909 17.3708 6.95796 16.9541 7.15984 15.2366 8.50731 13.8045 10.0893 13.6262L10.5058 13.5793 10.5058 14.8052C10.5058 15.8874 10.486 16.0377 10.3364 16.0862 9.20579 16.4527 8.002 17.4306 7.48217 18.4047 7.16862 18.9924 6.92311 19.8845 6.92311 20.4363 6.92311 20.9615 7.19382 21.2353 7.57963 21.1003 7.81885 21.0165 7.85443 20.9385 7.96802 20.25 8.11878 19.3362 8.3609 18.7935 8.88189 18.2016 9.25459 17.7782 10.1268 17.19 10.3847 17.188 10.4776 17.1875 10.5058 17.6418 10.5058 19.1403 10.5058 20.8219 10.528 21.1181 10.6661 21.2706 10.8036 21.4226 10.9841 21.4476 11.9415 21.4476 12.8431 21.4476 13.0904 21.417 13.2336 21.2874Z" fill="#D68D87" transform="matrix(1.00449 0 0 1 402 57.9161)"/></g></g></g><path d="M411.5 120.326C411.5 109.847 420.007 101.353 430.5 101.353 440.993 101.353 449.5 109.847 449.5 120.326 449.5 130.804 440.993 139.298 430.5 139.298 420.007 139.298 411.5 130.804 411.5 120.326Z" stroke="#7C7C7B" stroke-width="1.33333" stroke-miterlimit="8" fill="#F2F2F2" fill-rule="evenodd"/><g clip-path="url(#clip7)"><g clip-path="url(#clip8)"><g clip-path="url(#clip9)"><path d="M8.26449 30.3538C4.34387 29.937 1.16644 27.1657 0.244768 23.3593-0.177241 21.6166-0.0494017 19.6641 0.596128 17.9926 1.65278 15.2566 3.9891 13.1544 6.77862 12.4296 7.09673 12.3469 7.39466 12.2793 7.44062 12.2793 7.51069 12.2793 7.52167 12.5211 7.50837 13.7744L7.49246 15.2695 7.0174 15.4565C6.10303 15.8163 5.52708 16.1764 4.88766 16.7883 3.89522 17.7379 3.27272 18.9016 3.04534 20.2322 2.50447 23.397 4.53543 26.4655 7.69721 27.2604 8.42411 27.4432 9.82678 27.4432 10.5537 27.2604 11.9504 26.9093 13.2394 26.0486 14.1045 24.8897 14.678 24.1215 15.1287 22.9733 15.2584 21.9504L15.3309 21.3779 16.5334 22.7673C17.1948 23.5315 17.7359 24.1938 17.7359 24.2392 17.7359 24.3785 17.4172 25.114 17.1226 25.6543 15.8428 28.0024 13.5253 29.691 10.8633 30.2153 10.2412 30.3378 8.82423 30.4134 8.26443 30.3538ZM20.777 25.3682C20.5037 25.2321 20.2431 24.9435 18.4465 22.7875L16.4236 20.3601 13.1754 20.3428 9.9272 20.3256 9.64774 20.1879C9.494 20.1123 9.28361 19.9539 9.18005 19.836 8.77548 19.3752 8.80059 19.7514 8.78254 13.8883 8.7639 7.82951 8.74181 8.13296 9.23581 7.63901 9.99768 6.87714 11.2292 7.13771 11.6523 8.15036 11.7205 8.31348 11.7384 8.70137 11.7384 10.0183L11.7384 11.6803 14.0988 11.6977C16.7067 11.717 16.6174 11.7043 17.0267 12.1136 17.6164 12.7034 17.5941 13.7037 16.9791 14.2438 16.5431 14.6266 16.5689 14.6231 14.0394 14.6429L11.7384 14.661 11.7384 16.0236 11.7384 17.3862 14.5373 17.3862C16.4897 17.3862 17.4058 17.407 17.5662 17.4551 17.6928 17.493 17.8969 17.6101 18.0198 17.7154 18.1427 17.8206 19.1226 18.9653 20.1971 20.2593L22.1511 22.6118 23.0471 22.6118C23.8431 22.6118 23.9696 22.6258 24.1799 22.7367 24.7512 23.0381 25.003 23.4448 25.0033 24.0667 25.0036 24.6824 24.725 25.1279 24.1814 25.3811 23.8941 25.5148 23.8258 25.5204 22.4834 25.521 21.098 25.5216 21.0818 25.5201 20.777 25.3682ZM9.98658 6.33616C9.26384 6.24584 8.46401 5.82264 7.99578 5.28276 7.7057 4.9483 7.37969 4.29021 7.29044 3.85892 6.91651 2.05252 8.13492 0.297755 9.94638 0.033727 11.8635-0.245702 13.5792 1.24669 13.5792 3.19379 13.5792 5.11061 11.904 6.57589 9.98658 6.33616Z" fill="#D68D87" transform="matrix(1 0 0 1.01813 418 103.849)"/></g></g></g><path d="M384.5 172.25C384.5 161.772 393.007 153.278 403.5 153.278 413.993 153.278 422.5 161.772 422.5 172.25 422.5 182.729 413.993 191.223 403.5 191.223 393.007 191.223 384.5 182.729 384.5 172.25Z" stroke="#7C7C7B" stroke-width="1.33333" stroke-miterlimit="8" fill="#F2F2F2" fill-rule="evenodd"/><g clip-path="url(#clip10)"><g clip-path="url(#clip11)"><g clip-path="url(#clip12)"><path d="M11.5681 23.8426C11.3338 23.7128 11.1529 23.4127 11.1488 23.1471 11.1472 23.0421 11.2853 22.6702 11.4557 22.3208 11.7238 21.7711 11.7656 21.6073 11.7656 21.107 11.7656 20.6434 11.7206 20.4368 11.5387 20.0663L11.3117 19.6041 10.6103 19.4662C10.2246 19.3905 9.658 19.2374 9.35133 19.1261L8.79377 18.9237 8.44792 19.1264C7.66918 19.5828 7.26183 20.3561 7.26183 21.3781 7.26183 21.8712 7.24203 21.9284 6.98086 22.1895 6.66853 22.5019 6.40537 22.5446 6.0206 22.3457 5.71663 22.1885 5.60835 21.9877 5.61168 21.5876 5.61493 21.1974 5.69755 21.0885 6.27016 20.7191 7.09073 20.1897 7.4594 19.6223 7.55257 18.7452 7.60586 18.2437 7.59901 18.2292 7.13699 17.87L6.80555 17.6122 6.50098 17.7685C6.11942 17.9643 5.8114 18.3627 5.63781 18.885 5.45886 19.4234 5.31129 19.5781 4.97645 19.5781 4.22692 19.5781 4.14848 18.5353 4.88606 18.3765 5.44847 18.2553 6.00364 17.8583 6.23813 17.4093 6.35059 17.194 6.34074 17.1609 6.04482 16.7606L5.73301 16.3389 5.23475 16.3774C4.38359 16.4431 3.76532 16.8457 3.23761 17.6774 2.87253 18.2529 2.75947 18.3386 2.36492 18.3386 1.95412 18.3386 1.75898 18.2307 1.59462 17.9129 1.42584 17.5865 1.49543 17.1882 1.76556 16.9344 1.93195 16.7781 2.10044 16.7325 2.69398 16.6832 3.79064 16.5921 4.32885 16.2964 4.83487 15.5068L5.03433 15.1956 4.79475 14.5152C4.66298 14.1409 4.52999 13.6674 4.49921 13.4629 4.37537 12.6398 4.38497 12.6562 3.88844 12.4124 3.50883 12.226 3.3071 12.182 2.83305 12.182 2.31949 12.182 2.17124 12.2203 1.63479 12.4922 0.96756 12.8303 0.760753 12.8629 0.414792 12.684-0.10977 12.4127-0.142993 11.6951 0.3505 11.2954 0.621362 11.076 0.986253 11.1201 1.69579 11.4581 2.53383 11.8573 3.08799 11.8759 3.84555 11.5305L4.35461 11.2984 4.44365 10.7929C4.49261 10.5149 4.50208 10.2569 4.46466 10.2195 4.37168 10.1265 3.7706 10.1149 3.16463 10.1946 2.67954 10.2583 2.65606 10.2527 2.48286 10.0325 2.25322 9.74056 2.25645 9.56008 2.49632 9.28125 2.77962 8.95194 3.13163 8.98764 3.56934 9.39009 3.93925 9.73023 4.38311 9.95426 4.55392 9.88691 4.61155 9.86427 4.74339 9.59916 4.84688 9.29778 5.06265 8.66964 5.04863 8.61708 4.50851 8.03114 4.03043 7.51248 3.64249 7.33909 2.8043 7.26946 1.99019 7.20183 1.7784 7.11203 1.59461 6.75664 1.25485 6.09961 1.88488 5.37857 2.59422 5.61267 2.81518 5.68559 2.96694 5.83856 3.24536 6.26895 3.79839 7.12384 4.37512 7.49328 5.21128 7.52827L5.65256 7.54672 6.63238 6.56691 7.6122 5.58709 7.55986 5.14187C7.46059 4.29726 7.0878 3.78284 6.02225 3.02011 5.68226 2.77675 5.64821 2.72042 5.62511 2.36323 5.6031 2.02264 5.63142 1.94099 5.84601 1.72639 6.12406 1.44834 6.46396 1.40527 6.8411 1.60029 7.13953 1.75461 7.24202 2.03416 7.28388 2.808 7.32455 3.55983 7.61092 4.16082 8.12715 4.5777 8.69766 5.03845 8.74691 5.04885 9.30001 4.82543 9.57214 4.71552 10.1376 4.55938 10.5565 4.47844L11.3181 4.33127 11.5419 3.87676C11.7205 3.51387 11.7656 3.30562 11.7656 2.84377 11.7656 2.34336 11.7238 2.17957 11.4557 1.62994 11.2853 1.2805 11.1458 0.916076 11.1458 0.820112 11.1458 0.100877 12.0488-0.27396 12.5571 0.234292 12.8679 0.545047 12.8796 0.955743 12.5917 1.44693 12.4779 1.64113 12.3267 2.02663 12.2558 2.30357 12.1053 2.89098 12.1837 3.45078 12.4934 4.00036 12.6552 4.28745 12.7309 4.33996 13.0732 4.40249 13.5477 4.48919 13.7115 4.37781 13.9227 3.82479 14.0568 3.47383 14.0519 2.91598 13.9094 2.30478 13.8761 2.16171 13.9165 2.02564 14.0382 1.87093 14.3848 1.43027 15.1125 1.66486 15.1125 2.21723 15.1125 2.38215 14.999 2.59138 14.7535 2.87896 14.4006 3.29243 14.2024 3.74571 14.2046 4.13426 14.2071 4.56871 14.2929 4.68228 14.7441 4.84848 15.1851 5.01094 15.1889 5.01094 15.4599 4.84911 16.2869 4.35565 16.6045 3.80577 16.6883 2.72248 16.7453 1.98522 16.7636 1.92697 17.0062 1.71015 17.3414 1.41065 17.7351 1.40283 18.0751 1.68892 18.6156 2.14378 18.4892 2.72935 17.754 3.176 16.8839 3.70455 16.4398 4.39035 16.4365 5.21031L16.4347 5.6763 17.3644 6.61207 18.2941 7.54784 18.7313 7.53112C19.5811 7.49866 20.3239 6.99856 20.8119 6.13027 21.1718 5.48981 21.8368 5.37124 22.2585 5.87235 22.5438 6.21143 22.5367 6.60605 22.2393 6.93891 22.0257 7.17802 21.9613 7.1984 21.2192 7.26198 20.1612 7.35263 19.6394 7.64057 19.1581 8.39941L18.9344 8.75228 19.1364 9.30894C19.2475 9.61503 19.352 9.87906 19.3685 9.89559 19.4546 9.9817 20.0136 9.69536 20.3947 9.37009 20.8908 8.94665 21.1415 8.90648 21.4381 9.20308 21.6997 9.46471 21.6965 9.77849 21.4294 10.0456 21.2597 10.2154 21.1659 10.2474 20.9542 10.2079 20.2946 10.0846 19.7578 10.0593 19.5996 10.1439 19.442 10.2283 19.4374 10.2658 19.524 10.7533L19.6162 11.2728 20.1121 11.5207C20.5207 11.725 20.7057 11.7678 21.1638 11.764 21.6391 11.76 21.8045 11.7151 22.3041 11.4541 23.0441 11.0676 23.3779 11.055 23.7235 11.4007 23.9508 11.6279 23.9711 11.6903 23.932 12.0384 23.8803 12.4962 23.588 12.8016 23.2014 12.8016 23.0648 12.8016 22.667 12.6622 22.3176 12.4917 21.7662 12.2228 21.6058 12.182 21.1037 12.1832 20.62 12.1844 20.451 12.2249 20.0712 12.4311 19.6183 12.677 19.6168 12.6791 19.5171 13.2148 19.462 13.5102 19.4308 13.793 19.4475 13.8432 19.4961 13.9891 20.0514 14.0414 20.5134 13.9436 21.1017 13.819 21.3242 13.8353 21.454 14.0127 21.7439 14.4091 21.6421 14.8612 21.2242 15.0343 20.9568 15.1451 20.7498 15.0625 20.3684 14.6931 20.1038 14.4368 19.4205 14.0855 19.341 14.165 19.3132 14.1927 19.2102 14.437 19.1122 14.7078L18.934 15.2001 19.1785 15.5693C19.6632 16.3011 20.3837 16.6856 21.2698 16.6856 21.8509 16.6856 22.1998 16.8212 22.3459 17.1037 22.5422 17.4834 22.4998 17.8228 22.2212 18.1015 22.0065 18.3162 21.925 18.3443 21.5836 18.3224 21.225 18.2992 21.1713 18.2667 20.9414 17.9322 20.4525 17.2211 19.8151 16.6507 19.3382 16.4975 18.4894 16.2248 18.4519 16.2404 17.3863 17.3129 16.4387 18.2667 16.4347 18.2724 16.4347 18.666 16.4347 19.5168 16.8176 20.1451 17.6736 20.6989 18.0284 20.9284 18.2667 21.1478 18.3317 21.3045 18.5383 21.8034 18.2131 22.3553 17.6655 22.4351 17.0506 22.5249 16.6841 22.0458 16.6809 21.1481 16.6778 20.2913 16.284 19.6126 15.4975 19.1087L15.1801 18.9053 14.6653 19.1114C14.3822 19.2247 13.9115 19.3623 13.6192 19.4172 12.688 19.5918 12.6932 19.5888 12.432 20.108 12.0778 20.8122 12.0967 21.4228 12.499 22.2698 12.9209 23.1583 12.8912 23.5723 12.3871 23.833 12.0933 23.9849 11.8305 23.988 11.5681 23.8426ZM13.6305 18.0877C13.9459 17.9189 13.7311 17.4411 13.3887 17.5498 13.1659 17.6205 13.1186 17.7908 13.264 17.9985 13.405 18.1997 13.4161 18.2024 13.6305 18.0877ZM14.7914 16.6807C15.0497 16.5425 15.1338 16.223 14.9868 15.9386 14.8248 15.6254 14.5036 15.5388 14.2733 15.7463 13.8999 16.0827 13.9182 16.5264 14.3122 16.6852 14.5553 16.7831 14.6009 16.7827 14.7914 16.6807ZM11.7544 16.1374C12.4498 15.4419 11.4268 14.4093 10.7165 15.0898 10.3968 15.3961 10.4005 15.7878 10.7263 16.1137 11.0463 16.4336 11.4488 16.4429 11.7544 16.1374ZM8.67245 16.059C8.81922 15.8822 8.67154 15.6528 8.4109 15.6528 8.20857 15.6528 8.11457 15.8415 8.20259 16.0708 8.26344 16.2294 8.53676 16.2225 8.67245 16.059ZM16.3579 15.4806C16.4366 15.3857 16.4427 15.3118 16.3798 15.212 16.2565 15.0163 16.0095 14.9899 15.8856 15.1594 15.6563 15.4731 16.1087 15.7808 16.3579 15.4806ZM8.08248 13.7551C8.51899 13.5294 8.74931 13.1655 8.74931 12.7019 8.74931 12.3189 8.71931 12.2542 8.38834 11.9231 8.06053 11.5954 7.99023 11.5622 7.62392 11.5625 7.09136 11.5628 6.71759 11.7943 6.51692 12.248 6.08317 13.2286 7.13766 14.2436 8.08248 13.7551ZM11.4732 13.2209C11.622 12.943 11.3952 12.6604 11.111 12.7694 10.8241 12.8795 10.9205 13.3802 11.2285 13.3802 11.3162 13.3802 11.4263 13.3086 11.4732 13.2209ZM15.4959 12.929C16.1076 12.5005 15.7991 11.5622 15.0465 11.5622 14.681 11.5622 14.2861 11.9419 14.2861 12.2932 14.2861 12.6802 14.644 13.0497 15.0189 13.0497 15.1865 13.0497 15.4012 12.9954 15.4959 12.929ZM18.0875 11.4795C18.4238 11.1433 18.2074 10.5705 17.7441 10.5705 17.2487 10.5705 17.0043 11.1456 17.3594 11.4763 17.5889 11.6902 17.8756 11.6914 18.0875 11.4795ZM13.0027 11.2343C13.3177 10.8863 13.0619 10.3226 12.5889 10.3226 12.3737 10.3226 12.0549 10.6745 12.0549 10.9122 12.0549 11.3271 12.7156 11.5516 13.0027 11.2343ZM10.1509 10.5331C10.323 10.3258 10.2207 10.116 9.94757 10.116 9.77684 10.116 9.69321 10.1613 9.67329 10.2646 9.64048 10.435 9.79452 10.6531 9.94757 10.6531 10.0047 10.6531 10.0962 10.5992 10.1509 10.5331ZM6.64204 9.62015C6.64204 9.41381 6.6089 9.37224 6.44445 9.37224 6.21339 9.37224 6.05542 9.57867 6.13259 9.77973 6.16935 9.87559 6.25925 9.91212 6.41431 9.89427 6.60643 9.8722 6.64204 9.82931 6.64204 9.62015ZM16.3049 9.53165C16.3763 9.46017 16.4347 9.36984 16.4347 9.33092 16.4347 9.292 16.3763 9.20167 16.3049 9.13019 16.2335 9.05879 16.1432 9.00036 16.1042 9.00036 16.0652 9.00036 15.9749 9.05879 15.9035 9.13019 15.832 9.20167 15.7736 9.292 15.7736 9.33092 15.7736 9.36984 15.832 9.46017 15.9035 9.53165 15.9749 9.60305 16.0652 9.66147 16.1042 9.66147 16.1432 9.66147 16.2335 9.60305 16.3049 9.53165ZM9.77832 9.04871C10.299 8.83112 10.4039 8.24566 9.99525 7.83706 9.68734 7.52911 9.34794 7.51966 9.00358 7.80945 8.80236 7.9788 8.74931 8.08843 8.74931 8.33545 8.74931 8.69493 8.99028 9.054 9.26745 9.10754 9.36885 9.12713 9.46223 9.1482 9.47504 9.1544 9.48785 9.1606 9.62437 9.113 9.77832 9.04871ZM13.4541 8.91938C13.8408 8.80847 14.1886 8.45346 14.294 8.06225 14.4807 7.36874 13.9751 6.69203 13.222 6.6274 11.9569 6.51887 11.4985 8.23097 12.6363 8.81443 13.0501 9.02656 13.0709 9.02929 13.4541 8.91938Z" fill="#D68D87" transform="matrix(1.00145 0 0 1 391 158.77)"/></g></g></g><path d="M326.5 190.224C326.5 179.746 335.23 171.252 346 171.252 356.77 171.252 365.5 179.746 365.5 190.224 365.5 200.703 356.77 209.197 346 209.197 335.23 209.197 326.5 200.703 326.5 190.224Z" stroke="#7C7C7B" stroke-width="1.33333" stroke-miterlimit="8" fill="#F2F2F2" fill-rule="evenodd"/><g clip-path="url(#clip13)"><g clip-path="url(#clip14)"><g clip-path="url(#clip15)"><path d="M9.93059 26.615C4.97109 25.6966 0.791789 21.0106 0.0808266 15.571-0.0270113 14.7459-0.0268731 13.1885 0.0808266 12.4349 0.356154 10.5133 0.952508 8.81943 1.91107 7.23625 3.53046 4.56164 5.92784 2.58991 8.61665 1.72128 8.97517 1.60547 9.40354 1.4833 9.56868 1.44979L9.86888 1.38888 9.86888 0.846838C9.86888 0.0903443 9.99147-0.121433 10.3231 0.0622094 10.7217 0.282935 13.3499 2.12848 13.4428 2.25283 13.5952 2.45704 13.5952 3.05037 13.4428 3.25458 13.3499 3.37893 10.7217 5.22449 10.3231 5.44522 10.1583 5.53649 10.0035 5.50814 9.94072 5.37521 9.91754 5.32603 9.886 5.02516 9.87066 4.70655L9.84278 4.12727 9.32325 4.29926C5.51195 5.56108 2.66404 9.70369 2.66404 13.9859 2.66404 16.6988 3.74096 19.3264 5.68147 21.3481 6.60165 22.3069 7.68269 23.0523 8.81437 23.5087 9.39394 23.7424 9.85959 23.8717 10.602 24.0053 11.2836 24.1278 11.5687 24.2653 11.7978 24.5814 12.1773 25.1053 12.1274 25.8126 11.6773 26.2914 11.2969 26.6959 10.8321 26.782 9.93033 26.615ZM17.5661 25.5693C17.0134 25.4882 16.7431 25.2484 16.6127 24.7235 16.5321 24.3992 16.531 22.4099 16.6108 22.1701 16.7578 21.7311 17.0847 21.4911 17.6347 21.4186L17.9088 21.3824 17.9089 22.2096C17.9089 22.6646 17.9245 23.6183 17.9433 24.329 17.9725 25.424 17.9665 25.6202 17.9041 25.6146 17.8636 25.6111 17.7113 25.5907 17.5656 25.5693ZM19.0927 25.3991C19.0769 25.3346 19.0589 24.3905 19.0528 23.3011L19.0415 21.3203 19.5145 21.23C21.1639 20.9154 22.2192 20.1541 22.7272 18.9123 23.1207 17.9503 23.2107 16.7855 23.1304 13.6915 23.0511 10.6361 22.9745 9.90297 22.642 9.01876 22.4296 8.45381 22.1634 8.05473 21.7403 7.66713 21.1107 7.09017 20.4292 6.82343 18.9926 6.59178L18.7969 6.5602 18.7969 5.03548C18.7967 4.19687 18.7815 3.24642 18.7628 2.92338L18.7289 2.33602 19.1415 2.36689C23.4286 2.68764 25.4261 5.42304 25.9246 11.6553 26.0133 12.7636 26.0268 15.7212 25.948 16.7483 25.6891 20.1222 24.9233 22.3109 23.4986 23.7484 22.8542 24.3988 22.068 24.8709 21.1656 25.1497 20.7986 25.263 19.8791 25.4402 19.4162 25.4867 19.1424 25.5142 19.1196 25.508 19.0929 25.3991ZM6.701 17.5823C6.73776 17.106 6.92143 16.5144 7.19323 15.9973 7.46237 15.485 8.10782 14.8545 9.21653 14.0206 9.7334 13.6318 10.2831 13.1885 10.438 13.0354 11.1595 12.3225 11.269 11.2506 10.6804 10.6629 10.1114 10.0948 9.03584 10.2645 8.69841 10.9757 8.65132 11.0749 8.58694 11.3565 8.55531 11.6015L8.49777 12.0469 7.62766 12.0469 6.75749 12.0469 6.79785 11.629C6.98481 9.69528 8.09138 8.71872 9.97262 8.82726 10.9227 8.88203 11.5429 9.12814 12.0824 9.66443 12.6282 10.207 12.8949 10.8712 12.8965 11.6919 12.8985 12.2231 12.8218 12.5645 12.5978 13.0388 12.3345 13.5962 11.7156 14.1964 10.5482 15.0262 10.0458 15.3832 9.47021 15.8398 9.26905 16.0409L8.90328 16.4063 10.9003 16.42 12.8973 16.4337 12.8973 17.2162 12.8973 17.9987 9.7831 17.9987 6.6689 17.9987ZM17.8049 16.9545 17.8049 15.9625 15.9776 15.9625 14.1503 15.9625 14.1538 15.1925 14.1576 14.4224 15.8379 11.6553 17.5182 8.88824 18.5491 8.87409 19.58 8.85994 19.58 11.7064 19.58 14.5529 20.076 14.5529 20.572 14.5529 20.572 15.2577 20.572 15.9625 20.076 15.9625 19.58 15.9625 19.58 16.9545 19.58 17.9465 18.6924 17.9465 17.8049 17.9465 17.8049 16.9545ZM17.8049 12.6107C17.8049 11.4697 17.7857 10.689 17.7583 10.7182 17.7044 10.7755 15.6161 14.3774 15.5757 14.4827 15.5536 14.5402 15.7534 14.5529 16.6768 14.5529L17.8049 14.5529ZM17.2386 6.35319C16.6651 6.23807 16.4582 5.94137 16.3916 5.13871 16.2949 3.97131 16.3529 3.20966 16.5648 2.86454 16.6864 2.6664 16.9912 2.50917 17.3485 2.4602 17.5316 2.43509 17.5869 2.44575 17.6119 2.51092 17.6293 2.55629 17.647 3.44589 17.6512 4.48781 17.6598 6.62561 17.6996 6.4457 17.2386 6.35319Z" fill="#D68D87" transform="matrix(1 0 0 1.01058 331 174.747)"/></g></g></g><path d="M0 18.9725C-4.83091e-15 8.49428 8.49428 0 18.9725 0 29.4507-4.83091e-15 37.945 8.49428 37.945 18.9725 37.945 29.4507 29.4507 37.945 18.9725 37.945 8.49428 37.945-7.24636e-15 29.4507 0 18.9725Z" stroke="#7C7C7B" stroke-width="1.3314" stroke-miterlimit="8" fill="#F2F2F2" fill-rule="evenodd" transform="matrix(-1.00145 0 0 1 312.5 157.272)"/><g clip-path="url(#clip16)"><g clip-path="url(#clip17)"><g clip-path="url(#clip18)"><path d="M3.22383 28.6669C1.80104 28.1818 0.978755 27.4833 0.315042 26.196 0.0179706 25.6198 0 25.501 0 24.1132 0 22.4312 0.0943456 22.0617 0.96793 20.3208 1.85272 18.5575 4.07192 15.5286 5.66039 13.916 7.21279 12.3401 7.62265 12.1369 9.36794 12.0778 10.0996 12.053 10.6981 12.0628 10.6981 12.0995 10.6981 12.1606 8.45584 15.1508 5.8205 18.6041 3.67965 21.4094 3.53602 21.6791 3.52027 22.9245 3.51128 23.6253 3.5622 23.8824 3.80985 24.3962 4.20559 25.2168 4.78492 25.8134 5.51714 26.1542L6.11321 26.4318 12.0611 26.4331C17.0355 26.434 18.1178 26.4058 18.6736 26.2611 19.6064 26.018 20.0757 25.7736 20.5832 25.2661 22.505 23.3443 21.3961 19.9278 18.6792 19.3996 18.3057 19.327 17.9911 19.2622 17.9802 19.2556 17.9497 19.237 16.7539 14.8625 16.426 13.5697 16.2659 12.9387 16.1013 12.3346 16.0602 12.2274 15.9914 12.0482 16.0982 12.0359 17.3889 12.074 18.5796 12.1092 18.8746 12.1558 19.3343 12.3813 20.6178 13.0108 21.8437 14.6312 22.4844 16.5449 23.9577 20.946 24.4648 26.1837 23.5922 27.9864 23.1037 28.9955 23.8883 28.9242 13.3019 28.9214L3.9623 28.9188 3.22383 28.667ZM13.1772 24.9867C12.6888 24.7315 12.5138 24.5565 12.2587 24.068 12.0506 23.67 11.9434 23.2923 11.9434 22.958 11.9434 22.0539 12.6105 19.4394 14.0608 14.6604L14.3529 13.6981 14.951 16.6415C15.2798 18.2604 15.5806 19.776 15.6192 20.0094L15.6895 20.434 17.1032 20.434C19.0656 20.434 19.6178 20.6892 20.1649 21.8491 20.5943 22.7598 20.4772 23.6779 19.8317 24.4611 19.2036 25.223 18.8822 25.2966 16.1733 25.2994L13.7805 25.302ZM10.4595 10.6472C9.18657 10.2962 7.61709 9.04629 7.09937 7.97127 6.32753 6.36859 6.32753 4.38612 7.09937 2.78345 7.50062 1.95028 8.61745 0.912371 9.63612 0.425993 10.5204 0.0037781 10.5409 0 11.9434 0 13.3459 0 13.3664 0.00385083 14.2507 0.425993 15.2693 0.912371 16.3862 1.95028 16.7874 2.78345 17.3708 3.99471 17.53 5.53289 17.2027 6.79697 16.9335 7.83685 16.608 8.40946 15.8583 9.16192 15.1068 9.91635 14.2811 10.4122 13.3755 10.6534 12.6593 10.8441 11.1619 10.8409 10.4595 10.6472Z" fill="#D68D87" transform="matrix(1 0 0 1.00312 281 160.767)"/></g></g></g><path d="M0 18.9725C-4.83091e-15 8.49428 8.49428 0 18.9725 0 29.4507-4.83091e-15 37.945 8.49428 37.945 18.9725 37.945 29.4507 29.4507 37.945 18.9725 37.945 8.49428 37.945-7.24636e-15 29.4507 0 18.9725Z" stroke="#7C7C7B" stroke-width="1.3314" stroke-miterlimit="8" fill="#F2F2F2" fill-rule="evenodd" transform="matrix(-1.00145 0 0 1 286.5 113.336)"/><g clip-path="url(#clip19)"><g clip-path="url(#clip20)"><g clip-path="url(#clip21)"><path d="M5.18783 15.8721C4.82403 15.7536 4.31633 15.423 4.07347 15.1464 3.83838 14.8786 3.59469 14.4125 3.4937 14.0375L3.41997 13.7636 3.05054 13.7636C2.38873 13.7636 1.93088 13.5427 1.71208 13.1196 1.65314 13.0055 1.56911 12.2967 1.47423 11.113L1.32752 9.28261 1.49281 8.98656C1.75934 8.50913 2.00491 8.41682 3.15616 8.36132L4.11958 8.31488 4.95145 6.85116C5.8937 5.19331 6.19083 4.82286 6.80646 4.53849L7.20892 4.35256 10.2491 4.35256C14.2167 4.35256 13.7694 4.17378 16.0129 6.65652 16.8175 7.54702 17.509 8.28726 17.5494 8.30149 17.5899 8.31566 18.7582 8.47426 20.1456 8.65382 21.5331 8.83345 22.7481 9.01223 22.8455 9.05117 23.113 9.15803 23.4631 9.58184 23.5157 9.86263 23.5688 10.1454 23.3213 12.7486 23.2146 13.0302 23.0457 13.4759 22.679 13.6963 22.0236 13.7458L21.5557 13.7812 21.4447 14.1519C21.2336 14.8564 20.6858 15.4783 20.0112 15.7794 19.5697 15.9764 18.7497 16.0188 18.2898 15.8683 17.5064 15.6121 16.9076 15.0133 16.6402 14.2186L16.4981 13.7964 12.4868 13.7797 8.47556 13.7631 8.40169 14.0374C8.20265 14.7764 7.6782 15.4186 7.01351 15.7372 6.69313 15.8908 6.5269 15.9259 6.04464 15.9422 5.67304 15.955 5.36317 15.9295 5.18783 15.8725ZM6.56209 14.6533C6.98233 14.4343 7.24126 13.9952 7.24126 13.5017 7.24126 13.0956 7.10614 12.7938 6.80646 12.5307 6.51946 12.2787 6.31358 12.2001 5.9457 12.202 5.55124 12.2045 5.31579 12.3023 5.02308 12.5867 4.47365 13.1205 4.49301 13.9323 5.06779 14.4621 5.25584 14.6355 5.43895 14.7401 5.60224 14.7675 5.73882 14.7905 5.87971 14.8166 5.91528 14.8256 6.01852 14.8518 6.35126 14.7632 6.56209 14.6533ZM19.6255 14.6508C20.337 14.2479 20.5211 13.2752 20.0026 12.659 19.5954 12.1751 18.8276 12.0576 18.292 12.3973 17.9513 12.6133 17.6553 13.1279 17.6553 13.5043 17.6553 13.8807 17.9513 14.3953 18.292 14.6114 18.6769 14.8554 19.2351 14.872 19.6255 14.6508ZM9.44057 7.03596 9.44057 5.80699 8.45414 5.80699C7.60543 5.80718 7.44004 5.8241 7.26979 5.92793 7.13169 6.0121 6.88233 6.37353 6.44506 7.12322 6.10033 7.71429 5.81825 8.21288 5.81825 8.23131 5.81825 8.24962 6.63324 8.26469 7.62936 8.26469L9.44057 8.26469ZM15.5208 8.23028C15.5208 8.21119 15.0788 7.71643 14.5387 7.13072 13.8859 6.42291 13.467 6.02242 13.2893 5.93641 13.0557 5.8233 12.8899 5.80699 11.9751 5.80699L10.9283 5.80699 10.9283 6.11422C10.9282 6.28322 10.909 6.83628 10.8859 7.3432L10.8437 8.26495 13.1824 8.26495C14.4687 8.26495 15.5211 8.24929 15.5211 8.23028ZM26.9769 12.0557C26.7878 11.9509 26.6517 11.7175 26.6487 11.4927 26.6462 11.4003 26.8494 10.8994 27.0975 10.3796 27.7314 9.05208 27.7324 9.04593 27.5189 7.94929L27.3427 7.04495 26.7602 6.3451C26.4398 5.9602 26.1119 5.56701 26.0315 5.47137L25.8853 5.2975 25.3764 5.49724C24.9742 5.65514 24.7659 5.69773 24.3824 5.70052 23.9354 5.70369 23.8364 5.67754 23.1211 5.36513 22.6942 5.17872 22.294 4.9658 22.2317 4.89195 22.0672 4.69686 22.084 4.30873 22.264 4.14391 22.5345 3.8964 22.657 3.90422 23.3813 4.21542 24.3511 4.63202 24.3891 4.63493 25.0661 4.3441 25.6957 4.07362 26.24 3.61841 26.8493 2.85265 27.2887 2.30053 27.305 2.13781 27.004 1.31146 26.6812 0.425124 26.7578 0.0974077 27.3086 0.00800408 27.6663-0.0500339 27.8792 0.19994 28.1606 1.00793 28.5264 2.05821 28.4687 2.70347 27.9486 3.37983L27.7011 3.70173 28.4677 4.8352C28.8893 5.45861 29.5034 6.28637 29.8323 6.6747 30.5612 7.53512 30.7094 7.74767 30.8642 8.15518 31.0089 8.5361 31.4329 10.4564 31.4329 10.7309 31.4329 11.2717 30.8836 11.6185 30.4776 11.3341 30.2618 11.183 30.2289 11.09 29.9722 9.90759 29.8418 9.30655 29.6829 8.71288 29.6191 8.58836 29.5047 8.36488 28.9412 7.66856 28.8446 7.63118 28.8172 7.6207 28.8353 7.82439 28.8848 8.08396 29.0803 9.10894 29.0068 9.46806 28.2986 10.9499 27.911 11.7607 27.7887 11.96 27.6269 12.0436 27.3885 12.1669 27.1844 12.1707 26.9769 12.0556ZM24.8048 9.91004C24.1771 9.5973 24.0803 9.50176 24.1879 9.30072 24.2794 9.12983 24.3841 9.13643 24.7818 9.33792 25.0483 9.47298 25.1042 9.48455 25.071 9.39794 25.0039 9.2231 25.1431 9.05098 25.4185 8.96851 25.5602 8.92608 25.6762 8.87219 25.6762 8.84884 25.6762 8.82536 25.5734 8.75738 25.4478 8.69748 25.1599 8.56023 25.1069 8.424 25.2466 8.1806 25.3071 8.07503 25.3483 7.98027 25.338 7.96992 25.3277 7.9597 25.198 7.98364 25.0498 8.02309 24.7349 8.10718 24.5765 8.02316 24.5765 7.77193 24.5765 7.55375 24.4816 7.5813 24.3263 7.8445 24.1758 8.09955 24.1314 8.11171 23.8606 7.9716L23.6687 7.87238 23.7094 8.12717C23.7437 8.34146 23.7292 8.39321 23.6182 8.45259 23.3341 8.60466 23.195 8.3729 23.1116 7.60879 23.0766 7.28809 23.0874 7.23531 23.1997 7.17522 23.3006 7.12121 23.393 7.14152 23.6372 7.27153 23.9825 7.45537 23.9563 7.46914 24.2182 6.9672 24.303 6.80491 24.4169 6.63511 24.4713 6.58996 24.6249 6.46245 24.7932 6.53188 24.848 6.74533 24.8754 6.8518 24.9278 7.06028 24.9646 7.20853L25.0314 7.47807 25.5316 7.3227C25.8067 7.23719 26.0662 7.16688 26.1081 7.16629 26.1947 7.16629 26.3876 7.34146 26.3876 7.42154 26.3876 7.45071 26.2566 7.65246 26.0966 7.86992 25.9364 8.08739 25.8055 8.27801 25.8055 8.29354 25.8055 8.30893 25.9781 8.42827 26.1892 8.55848 26.8016 8.93655 26.7777 9.05965 26.0456 9.29833 25.6471 9.42822 25.6111 9.45428 25.6552 9.58087 25.6819 9.65758 25.7049 9.8222 25.7062 9.94672 25.7086 10.1423 25.6864 10.1749 25.5467 10.1861 25.4578 10.1932 25.1239 10.069 24.8048 9.91004ZM0.14048 7.32341C-0.0147112 7.21468-0.0428501 7.03673 0.0636914 6.83764 0.127255 6.71888 0.215852 6.71254 1.80786 6.71254 3.3999 6.71254 3.4885 6.71888 3.55206 6.83764 3.6586 7.03673 3.63046 7.21468 3.47524 7.32341 3.35501 7.40763 3.08218 7.42406 1.80786 7.42406 0.533569 7.42406 0.260737 7.40769 0.14048 7.32341ZM1.10857 5.80351C0.983695 5.75342 0.962401 5.70379 0.979219 5.50184 1.01188 5.10938 1.09862 5.09139 2.86428 5.11083 4.30484 5.12672 4.41185 5.13603 4.49753 5.25335 4.62468 5.42742 4.61217 5.59001 4.45989 5.7423 4.33755 5.86466 4.24724 5.87143 2.79429 5.86756 1.94936 5.86512 1.19079 5.83647 1.10857 5.80351ZM24.7382 3.5934C24.1318 3.37841 23.8012 2.78865 23.9402 2.16995 24.1271 1.33786 25.0865 0.957343 25.8026 1.43125 26.4046 1.82963 26.5065 2.71406 26.0116 3.24395 25.6697 3.61 25.171 3.74686 24.7382 3.5934Z" fill="#D68D87" transform="matrix(1.01793 0 0 1 251 123.821)"/></g></g></g><path d="M0 18.9725C-4.83091e-15 8.49428 8.49428 0 18.9725 0 29.4507-4.83091e-15 37.945 8.49428 37.945 18.9725 37.945 29.4507 29.4507 37.945 18.9725 37.945 8.49428 37.945-7.24636e-15 29.4507 0 18.9725Z" stroke="#7C7C7B" stroke-width="1.3314" stroke-miterlimit="8" fill="#F2F2F2" fill-rule="evenodd" transform="matrix(-1.00145 0 0 1 291.5 57.4168)"/><g clip-path="url(#clip22)"><g clip-path="url(#clip23)"><g clip-path="url(#clip24)"><path d="M23.0616 20.8661C22.5067 20.729 22.2345 20.5698 20.1003 19.1342 19.0248 18.4108 18.0878 17.8189 18.0181 17.8189 17.9485 17.8189 16.759 18.3459 15.3747 18.9903 13.2928 19.9592 12.8496 20.1336 12.8109 19.9994 12.7852 19.9101 12.7346 19.5852 12.6984 19.2775 12.6624 18.9697 12.5813 18.6981 12.5182 18.6739 12.4552 18.6498 11.9986 18.5746 11.5036 18.5069L10.6036 18.3839 10.5413 18.0522 10.4791 17.7204 9.89864 17.7204C9.57945 17.7204 9.29491 17.6827 9.26638 17.6365 9.23784 17.5904 9.77697 17.1141 10.4644 16.5781 11.1519 16.0422 12.0604 15.3312 12.4833 14.9981L13.2522 14.3924 10.5164 12.4307C9.01178 11.3519 7.72938 10.4393 7.66667 10.4028 7.60396 10.3663 6.72109 10.6639 5.70474 11.0643L3.85681 11.7922 3.33292 11.4444C3.04478 11.253 2.80902 11.0617 2.80902 11.0193 2.80902 10.9769 3.53084 10.3258 4.41306 9.57247 5.84089 8.35328 6.03101 8.1551 6.14363 7.76842 6.21322 7.52955 6.49331 6.59713 6.76607 5.6964L7.26197 4.05872 7.8402 4.41656C8.29165 4.69593 8.41932 4.82836 8.42244 5.02054 8.43304 5.6743 8.60822 8.78408 8.63556 8.80417 8.76986 8.90278 14.4107 12.1106 14.5276 12.1549 14.651 12.2016 14.7849 11.8072 15.2597 9.99994L15.8408 7.78793 16.4521 7.84501C16.7882 7.87625 17.1959 7.8558 17.3578 7.79939 17.6293 7.70473 17.6818 7.72671 18.0263 8.07957 18.2471 8.30565 18.5944 8.52697 18.8743 8.61992 19.1351 8.70654 19.35 8.82922 19.352 8.89255 19.397 10.3399 19.633 15.2802 19.6582 15.3028 19.6774 15.3199 20.628 15.9378 21.7707 16.6757 24.447 18.4038 24.8884 18.833 24.8884 19.7073 24.8884 20.5843 24.0565 21.112 23.0616 20.8661ZM0.50689 19.4534C0.200652 18.9175-0.0263417 18.4555 0.00246559 18.4268 0.0376281 18.3917 8.28725 16.7457 8.47563 16.7362 8.47898 16.736 8.44634 17.0572 8.4035 17.4497 8.33729 18.0561 8.35123 18.1956 8.49615 18.3771 8.58997 18.4945 8.79318 18.7484 8.94772 18.9413 9.21824 19.2788 9.22438 19.31 9.11234 19.777L8.99595 20.2623 7.99452 20.322C7.44374 20.3548 5.65898 20.3922 4.02839 20.4048L1.06369 20.4278ZM4.29454 16.6065C3.75833 15.4987 4.25496 14.1598 5.39853 13.63 5.80237 13.4429 5.91738 13.3253 6.11621 12.8961L6.35297 12.3851 6.15863 12.1122C6.05174 11.962 5.92212 11.7283 5.87058 11.5927 5.78995 11.3807 5.81085 11.3308 6.02043 11.2354 6.33894 11.0903 6.30424 11.0744 6.53871 11.4718L6.74369 11.8192 7.1352 11.6194C7.74091 11.3104 7.76991 11.3753 7.2897 11.9649 7.04548 12.2647 6.75632 12.6851 6.64711 12.8993L6.44855 13.2884 6.77005 13.4289 7.09155 13.5695 6.74698 13.5818C5.06505 13.6422 4.02072 15.3664 4.959 16.5339L5.2612 16.91 4.95806 16.9706C4.50871 17.0605 4.51642 17.0647 4.29454 16.6064ZM14.3768 9.83777C13.9033 9.50724 13.2643 9.31256 12.8515 9.37318 12.6699 9.39997 12.585 9.38173 12.6389 9.32789 12.6882 9.27863 12.9111 9.21381 13.1343 9.18385 13.6096 9.12012 13.6492 8.96797 13.3458 8.37319 12.9808 7.65777 12.3001 7.32114 11.4051 7.41353 10.7286 7.48333 10.2992 7.73538 10.0254 8.22338 9.82581 8.57929 9.82123 8.62308 9.96687 8.78397 10.1323 8.96674 10.0116 9.03334 9.83498 8.85676 9.77903 8.80079 9.51543 8.66594 9.24921 8.55707 8.8616 8.39857 8.82869 8.36928 9.084 8.40998 9.35937 8.45392 9.42265 8.42264 9.54833 8.17948 9.76175 7.76675 10.517 7.13993 10.9613 7.00683 12.3438 6.59262 13.7155 7.31738 14.0961 8.66316 14.2205 9.10308 14.3073 9.2323 14.5591 9.35227 14.7536 9.44499 14.8812 9.58661 14.9019 9.7328 14.9543 10.1027 14.8003 10.1335 14.3768 9.83777ZM19.807 7.65482C19.8578 7.1105 19.8327 6.96721 19.6088 6.5252 19.4676 6.24676 19.3061 5.99047 19.2498 5.95567 19.1038 5.86545 18.8562 6.51582 18.8562 6.9895 18.8562 7.20959 18.9233 7.55004 19.0052 7.74613 19.0871 7.94222 19.1323 8.12451 19.1056 8.15119 19.0118 8.24507 18.279 7.68259 18.101 7.38004 17.9484 7.12054 17.878 7.0824 17.6398 7.12977 17.4003 7.17736 17.3694 7.16028 17.4311 7.01371 17.8745 5.96044 17.798 4.79118 17.2401 4.09527 17.1131 3.93679 17.0662 3.92831 16.9323 4.03945 16.6826 4.24678 16.3956 4.88272 16.2871 5.46928 16.2091 5.89142 16.2206 6.13759 16.3404 6.60527 16.4246 6.93364 16.4934 7.21859 16.4934 7.23845 16.4934 7.25818 16.3571 7.22692 16.1905 7.16899 16.0238 7.1109 15.6733 6.84914 15.4114 6.58726 14.4229 5.59873 14.2627 4.12477 14.9903 2.71302L15.1394 2.42372 15.2815 2.69498C15.3941 2.90974 15.4519 2.94278 15.5595 2.85348 15.8566 2.60701 16.0504 1.83972 16.0504 0.910654 16.0504 0.410006 16.0793 0.000223329 16.1145 7.56088e-08 16.1497-0.00018597 16.5004 0.342993 16.8936 0.762599 17.6569 1.57707 18.3631 2.58882 18.7483 3.42004L18.9851 3.93073 19.3882 3.47208 19.7915 3.01341 19.8532 3.74625C19.8871 4.14929 19.995 4.64517 20.0929 4.84822 20.2762 5.22835 20.4314 5.32989 20.4314 5.06976 20.4314 4.77556 20.6085 4.93254 20.8131 5.40796 21.2507 6.42536 20.948 7.6043 20.131 8.06345L19.7488 8.27823Z" fill="#D68D87" transform="matrix(1.00371 0 0 1 259 62.9088)"/></g></g></g><path d="M0 18.9725C-4.83091e-15 8.49428 8.49428 0 18.9725 0 29.4507-4.83091e-15 37.945 8.49428 37.945 18.9725 37.945 29.4507 29.4507 37.945 18.9725 37.945 8.49428 37.945-7.24636e-15 29.4507 0 18.9725Z" stroke="#7C7C7B" stroke-width="1.3314" stroke-miterlimit="8" fill="#F2F2F2" fill-rule="evenodd" transform="matrix(-1.00145 0 0 1 329.5 28.4588)"/><g clip-path="url(#clip25)"><g clip-path="url(#clip26)"><g clip-path="url(#clip27)"><path d="M21.6905 15.67C21.5153 15.5922 21.3565 15.4245 21.2889 15.2461 21.257 15.1618 21.2381 14.5738 21.2381 13.6628L21.2381 12.2135 11.5765 12.2135C2.81037 12.2135 1.91228 12.2205 1.88606 12.2888 1.87022 12.3302 1.85715 12.943 1.85715 13.6505 1.85715 15.0916 1.85157 15.1188 1.52162 15.3042 1.38079 15.3834 1.26202 15.404 0.94591 15.4039 0.480414 15.4038 0.273152 15.3225 0.108094 15.0755L0 14.9137 0 8.42776 0 1.94185 0.108094 1.78003C0.269894 1.53785 0.482338 1.45173 0.91819 1.45164 1.33139 1.45155 1.53641 1.5184 1.71429 1.71115L1.83334 1.84016 1.85715 5.70538 1.88096 9.57062 11.5595 9.58267 21.2381 9.59471 21.2399 8.48748C21.2417 7.23714 21.2747 7.07876 21.579 6.89071 21.9094 6.68652 22.5051 6.71352 22.7553 6.944 23.0109 7.17952 23.0008 7.00129 23.0008 11.2476 23.0008 14.9964 22.9964 15.1994 22.9125 15.3571 22.7791 15.6077 22.5178 15.736 22.1436 15.7347 21.9734 15.7347 21.7698 15.705 21.6912 15.6701ZM6.72614 9.23429C6.42733 9.08538 6.16152 8.82595 6.04452 8.569 5.92481 8.30614 5.28571 5.12419 5.28576 4.79124 5.28581 4.30128 5.64252 3.74673 6.07352 3.56667 6.32743 3.46057 6.88724 3.3492 7.08005 3.36644L7.2619 3.38264 7.05876 3.47018C6.78962 3.58614 6.50176 3.9186 6.43257 4.19335 6.33733 4.57175 6.47824 4.9959 6.78181 5.24452 6.87286 5.3191 7.40381 5.66852 7.96176 6.0211 8.95924 6.65133 8.98138 6.66238 9.28619 6.68057L9.59614 6.69905 10.7861 6.14429C11.5153 5.80438 12.0345 5.5331 12.1268 5.44376 12.2097 5.36357 12.2968 5.30571 12.3204 5.31524 12.344 5.32476 12.7691 5.59624 13.265 5.91867 16.0192 7.70919 15.807 7.5559 15.9551 7.86186 16.2845 8.54229 15.7907 9.35629 15.0485 9.35629 14.7264 9.35629 14.6168 9.305 13.8057 8.7749 12.0036 7.59714 11.6218 7.35629 11.5565 7.35629 11.5179 7.35629 11.1893 7.51338 10.8264 7.70543 10.4636 7.89748 9.84524 8.22186 9.45238 8.42629 9.05952 8.63071 8.67381 8.8569 8.59524 8.92895 8.302 9.19771 7.82767 9.35162 7.28319 9.35457 7.04133 9.35638 6.91595 9.32881 6.72614 9.23419ZM3.31983 8.97824C2.54571 8.14209 2.19792 7.11719 2.25235 5.83252 2.30601 4.56517 2.45543 4.40279 3.20443 4.79776 3.55821 4.98429 4.26971 5.65295 4.63483 6.14205 4.97529 6.59805 5.14457 6.95448 5.28138 7.50348 5.39638 7.965 5.48995 8.87248 5.44662 9.10633L5.41795 9.2611 4.49983 9.2611 3.5817 9.2611ZM9.111 6.31119C9.01662 6.27081 7.74805 5.47476 7.15948 5.08652 6.8839 4.90476 6.7619 4.6989 6.7619 4.4157 6.7619 4.04316 7.12886 3.71279 7.5 3.75122 7.64105 3.7658 7.89967 3.90423 8.49671 4.28463 8.94014 4.56716 9.3381 4.80752 9.38105 4.81871 9.424 4.82991 9.84933 4.65553 10.3263 4.43108 11.2528 3.99505 11.4705 3.94374 11.7597 4.09326 12.1735 4.30728 12.21 4.98114 11.8221 5.24943 11.7497 5.29952 11.219 5.56105 10.6429 5.83062 9.60457 6.31638 9.32681 6.40352 9.111 6.31119ZM6.20157 2.89872C5.90733 2.79059 5.51038 2.40855 5.38186 2.10979 5.0589 1.35903 5.33238 0.562324 6.04762 0.17042 6.32886 0.016306 6.39195 0.00073791 6.7381 0 7.05995 0 7.16119 0.0198695 7.39062 0.132535 7.73295 0.300652 8.06186 0.659833 8.1691 0.982657 8.27805 1.31072 8.24614 1.874 8.10286 2.15262 7.95024 2.44931 7.75229 2.65384 7.46757 2.80896 7.25376 2.92544 7.15119 2.94902 6.80952 2.96016 6.53124 2.96934 6.34129 2.95008 6.20157 2.89872Z" fill="#D68D87" transform="matrix(1 0 0 1.01671 299 38.9436)"/></g></g></g><path d="M332.208 62.9088C332.208 62.9088 332.075 62.9088 332.075 63.0276 331.943 63.1463 331.811 63.265 331.547 63.265 331.547 63.265 331.547 63.265 331.547 63.265 331.283 63.265 331.283 63.1463 331.151 63.1463 331.019 63.1463 331.019 63.1463 330.887 63.265 330.623 63.3838 330.226 63.3838 330.094 63.6213 330.094 63.6213 329.962 63.74 329.83 63.74 329.698 63.74 329.434 63.5025 329.302 63.5025 329.302 63.5025 329.302 63.5025 329.302 63.5025 328.906 63.5025 329.302 63.9775 328.774 64.0962 328.774 64.0962 328.774 64.215 328.642 64.215 328.509 64.215 328.377 64.0962 328.113 63.9775 328.113 63.9775 327.981 63.9775 327.981 63.9775 327.849 63.9775 327.717 63.9775 327.585 63.9775 327.453 64.0962 327.321 64.0962 327.057 64.0962 327.057 64.0962 327.057 64.0962 326.925 64.0962 326.925 64.0962 326.792 64.0962 326.792 64.0962 326.66 64.0962 326.528 64.215 326.528 64.4525 326.528 64.6899 326.396 64.8087 326.264 64.8087 326.264 64.8087 326.132 64.8087 326.132 64.8087 326.132 64.8087 326.132 64.8087 326.132 64.8087 326 64.8087 325.736 65.0462 325.868 65.2836 326 65.6399 325.472 65.4024 325.208 65.6399 324.943 65.8773 324.943 65.8773 324.547 65.9961 324.283 65.9961 324.547 66.7085 324.547 66.8273 324.811 67.0648 324.415 67.6585 325.075 67.6585 325.208 67.6585 325.208 67.6585 325.208 67.6585 325.472 67.6585 325.736 67.6585 325.868 67.6585 326.132 67.6585 326.264 67.6585 326.396 67.6585 326.528 67.7772 326.66 67.7772 326.66 67.8959 326.792 68.1334 327.057 68.2522 327.321 68.4896 327.321 68.6084 327.453 68.8459 327.585 68.9646 327.717 68.9646 327.717 69.0833 327.849 69.0833 327.981 69.0833 328.113 68.8459 328.245 68.7271 328.245 68.7271 328.245 68.7271 328.245 68.7271 328.377 68.7271 328.509 69.677 328.642 69.677 328.774 69.7958 328.906 70.0333 329.038 70.152 329.302 70.2708 329.566 70.152 329.698 70.2708 329.962 70.3895 329.83 70.627 329.698 70.7457 329.434 70.8645 329.434 70.8645 329.302 71.1019 329.038 71.4582 328.377 71.2207 328.245 71.5769 328.113 71.8144 327.189 72.2893 327.189 72.2893 327.189 72.4081 327.321 72.5268 327.321 72.7643 327.321 73.0018 327.189 73.2393 327.321 73.358 327.585 73.5955 327.717 73.4768 327.585 73.833 327.453 74.1892 327.189 74.0705 327.321 74.4267 327.321 74.7829 327.717 74.7829 327.717 75.0204 327.717 75.3766 327.717 75.7328 327.981 75.9703 327.981 75.9703 327.981 75.9703 327.849 75.9703 327.717 75.9703 327.717 76.6828 327.717 76.8015 327.717 77.1577 327.321 77.6327 327.717 77.9889 328.377 78.5826 329.17 78.3451 329.698 78.7013 329.962 78.9388 330.094 79.295 330.358 79.295 330.491 79.295 330.491 79.295 330.491 79.295 330.491 79.295 330.755 79.295 331.019 79.295 331.151 79.295 331.283 79.295 331.283 79.295 331.415 79.4138 331.151 79.77 331.283 80.0075 331.283 80.1262 331.547 80.3637 331.811 80.3637 332.075 80.4825 332.34 80.4825 332.604 80.4825 332.604 80.4825 332.604 80.4825 332.604 80.4825 332.604 80.4825 332.604 80.4825 332.604 80.4825 332.736 80.4825 332.868 80.4825 332.868 80.6012 332.868 80.6012 333 80.7199 333.132 80.7199 333.132 80.7199 333.132 80.7199 333.132 80.7199 333.132 80.7199 333.132 80.7199 333.132 80.7199 333.792 80.7199 333.792 81.5511 333.132 81.6699 333.132 81.6699 333.132 81.6699 333.132 81.6699 333 81.6699 332.868 81.5511 332.868 81.5511 332.736 81.5511 332.604 81.5511 332.472 81.5511 332.472 81.5511 332.472 81.5511 332.34 81.5511 332.075 81.7886 331.943 82.0261 331.547 82.1448 331.019 82.2636 331.019 82.3823 330.755 82.7385 330.491 82.976 330.491 82.976 330.755 83.3322 330.887 83.5697 331.019 84.0447 331.019 84.2822 331.019 84.6384 330.491 84.6384 330.623 85.1133 330.755 85.4696 330.755 85.3508 330.358 85.4696 330.094 85.5883 329.962 86.0633 329.83 86.3008 329.434 86.8945 328.642 87.1319 328.509 87.7256 328.377 87.9631 328.642 88.4381 328.377 88.5568 328.113 88.7943 327.849 88.913 327.585 89.0318 327.189 89.1505 326.792 89.1505 326.66 89.2693 326.264 89.6255 326.264 90.2192 326.132 90.6942 326 91.0504 325.736 91.1691 325.472 91.5253 325.208 91.8816 325.075 92.2378 324.811 92.594 324.679 92.7127 324.283 93.1877 324.151 93.3064 324.019 93.3064 324.019 93.3064 323.887 93.3064 323.887 93.3064 323.755 93.3064 323.623 93.1877 323.491 93.1877 323.491 93.1877 323.358 93.1877 323.226 93.1877 323.094 93.1877 322.962 93.4252 322.83 93.6627 322.698 93.9002 322.302 94.1376 322.038 94.3751 322.038 94.8501 321.906 95.0876 321.642 95.4438 321.245 95.4438 320.981 95.6813 320.585 95.9187 320.717 96.1562 320.585 96.5125 320.585 96.6312 320.189 96.7499 319.925 96.7499 319.792 96.7499 319.528 96.7499 319.396 96.6312 319.264 96.6312 319 96.6312 318.868 96.6312 318.868 96.6312 318.868 96.6312 318.736 96.6312 318.34 96.7499 317.811 96.7499 317.547 96.8687 317.415 96.9874 317.019 97.2249 316.887 97.2249 316.755 97.2249 316.755 97.2249 316.755 97.1062 316.491 96.8687 316.491 96.6312 316.623 96.275 316.623 96.0375 316.755 95.8 316.491 95.8 316.358 95.8 316.358 95.8 316.358 95.8 315.302 95.9187 314.642 96.1562 313.981 96.9874 313.585 97.3436 313.453 97.6999 312.925 98.0561 312.396 98.2936 312 98.4123 311.604 98.8873 311.208 99.3622 311.34 101.025 312.264 101.143 312.792 101.262 313.057 101.5 313.453 101.5 313.585 101.5 313.585 101.5 313.585 101.5 313.585 101.5 313.585 101.5 313.585 101.5 314.113 101.5 313.849 101.975 313.585 102.331 313.321 102.687 313.189 103.043 313.321 103.518 313.453 103.993 313.849 104.468 314.113 104.824 314.377 104.943 314.509 104.943 314.642 104.943 314.774 104.943 314.906 104.943 315.038 104.943 315.17 104.943 315.17 104.943 315.302 104.943 315.698 104.943 315.302 105.299 315.434 105.774 315.698 106.724 317.019 108.268 316.358 109.218 316.226 109.455 316.094 109.336 315.962 109.693 315.962 109.811 315.962 109.811 315.83 109.811 315.83 109.811 315.83 109.811 315.83 109.811 315.698 109.693 315.698 109.693 315.566 109.693 315.566 109.693 315.566 109.693 315.566 109.693 315.566 109.693 315.566 108.861 315.17 108.861 315.17 108.861 315.17 108.861 315.17 108.861 314.642 108.861 314.245 109.218 313.717 109.336 313.717 109.336 313.717 109.336 313.717 109.336 313.717 109.336 313.585 109.336 313.585 109.218 313.453 109.218 313.453 109.218 313.453 109.218 313.321 109.218 313.189 109.336 313.189 109.336 313.057 109.455 313.057 109.693 313.057 109.93 312.66 109.93 312.396 109.93 312.132 109.811 311.736 109.693 311.604 109.218 311.208 109.099 311.208 109.099 311.075 109.099 311.075 109.099 310.811 109.099 310.679 109.336 310.415 109.455 310.283 109.455 310.283 109.455 310.151 109.455 309.755 109.455 309.358 109.218 308.962 109.099 308.83 109.099 308.566 108.98 308.302 108.98 308.17 108.98 308.17 108.98 308.038 108.98 307.774 109.099 307.642 109.574 307.774 109.693 307.774 109.93 307.774 110.286 307.509 110.286 307.509 110.286 307.377 110.286 307.377 110.286 307.377 110.168 307.245 110.168 307.245 110.168 307.113 110.168 307.113 110.168 307.113 110.168 307.113 110.286 306.981 110.286 306.981 110.286 306.981 110.286 306.981 110.286 306.849 110.168 306.717 110.168 306.585 110.049 306.321 109.93 306.321 109.93 306.321 109.93 306.189 109.93 305.528 109.93 305.66 110.88 305.66 111.236 305.528 111.474 305 111.593 305.396 111.949 305.528 111.949 305.66 112.186 305.792 112.186 305.792 112.186 305.792 112.186 305.792 112.186 305.925 112.186 305.925 112.186 305.925 112.186 305.925 112.186 306.057 112.186 306.057 112.186 306.057 112.186 306.057 112.186 306.189 112.186 306.453 112.542 306.981 112.78 307.113 113.255 307.245 113.73 307.906 114.324 308.434 114.561 309.094 114.799 309.623 115.155 310.415 115.392 310.547 115.392 310.679 115.392 310.811 115.392 310.943 115.392 310.943 115.392 311.075 115.392 311.208 115.392 311.208 115.392 311.34 115.392 311.34 115.392 311.472 115.392 311.472 115.392 311.472 115.392 311.472 115.392 311.472 115.392 311.736 115.392 311.736 115.273 311.736 115.155 311.736 115.036 311.736 114.917 311.868 114.917 312 114.917 312 115.036 312.132 115.036 312.264 115.036 312.396 115.036 312.528 115.036 312.792 115.036 312.925 115.036 313.189 114.917 313.189 114.799 313.321 114.68 313.585 114.68 313.585 114.68 313.717 114.68 313.849 114.799 313.849 114.799 313.189 115.392 313.189 115.392 312.792 115.63 312.528 115.511 312.132 115.63 311.868 115.867 311.34 115.867 311.075 116.105 311.075 116.105 310.943 116.105 310.943 116.105 310.811 116.105 310.679 116.105 310.679 116.105 310.547 116.105 310.415 115.986 310.415 115.986 310.283 115.986 310.283 116.105 310.151 116.105 310.151 116.105 309.887 116.342 309.623 116.342 309.623 116.342 309.491 116.342 309.491 116.223 309.358 115.986 309.358 115.748 308.962 115.748 308.962 115.748 308.962 115.748 308.83 115.748 308.302 115.748 307.906 116.223 307.906 116.698 308.038 117.411 308.83 118.005 309.358 118.479 309.887 119.073 310.415 119.548 310.943 120.023 311.472 120.617 311.868 121.329 312.528 121.923 312.792 122.16 313.189 122.279 313.321 122.635 313.585 122.992 313.981 122.992 314.377 123.11 314.642 123.229 314.906 123.467 315.17 123.467 315.302 123.467 315.302 123.467 315.434 123.348 315.566 123.348 315.698 123.11 315.83 123.11 315.83 123.11 315.83 123.11 315.83 123.11 316.094 123.11 316.094 123.11 316.226 123.11 316.358 123.11 316.491 123.11 316.623 123.11 316.887 122.992 317.415 122.992 317.679 122.873 318.075 122.517 318.208 122.517 318.736 122.398 319.132 122.398 319.264 122.279 319.396 122.042 319.66 121.804 320.189 121.923 320.453 121.567 320.585 121.448 320.585 121.211 320.717 121.092 320.849 120.854 321.113 120.736 321.245 120.498 321.509 120.261 321.245 119.904 320.981 119.667 320.981 119.548 321.113 119.429 321.245 119.429 321.377 119.311 321.245 119.073 321.245 118.954 320.981 118.479 321.113 118.123 321.509 117.886 321.377 117.886 321.509 118.479 321.509 118.479 321.509 118.836 321.509 118.836 321.642 118.836 321.642 118.836 321.774 118.836 321.774 118.836 321.774 118.836 321.906 118.836 321.906 118.836 321.906 118.836 322.038 118.836 322.038 118.836 322.17 118.836 321.509 119.311 321.509 119.429 321.509 119.904 321.906 119.904 322.302 119.904 322.302 119.904 322.302 119.904 322.302 119.904 322.17 119.904 322.038 120.261 322.038 120.379 322.038 120.617 322.038 120.498 321.906 120.617 321.642 120.854 321.642 121.092 321.642 121.329 321.642 121.685 321.906 121.685 322.038 121.923 322.17 122.16 321.906 122.16 322.17 122.398 322.434 122.754 322.302 122.992 322.434 123.229 322.566 123.467 322.698 123.585 322.698 123.823 322.566 124.179 322.038 124.298 322.038 124.654 321.906 125.129 322.038 125.604 321.642 125.96 321.245 126.554 322.17 126.791 321.906 127.266 321.774 127.623 321.906 127.741 322.038 127.979 322.17 128.216 321.906 128.572 322.038 128.81 322.038 129.166 322.17 129.404 322.17 129.76 322.17 130.116 321.906 130.116 322.302 130.591 322.434 130.71 322.17 130.947 322.17 131.066 322.038 131.303 322.434 131.541 322.566 131.66 322.83 131.778 322.566 132.016 322.698 132.253 322.83 132.491 323.094 132.491 323.094 132.728 323.094 133.203 323.491 133.56 323.491 134.035 323.491 134.153 323.358 134.628 323.358 134.628 323.755 134.866 323.623 134.866 323.623 135.341 323.755 135.341 323.755 135.341 323.887 135.459 323.887 135.578 323.755 135.816 323.755 135.934 323.755 136.291 323.887 136.647 323.887 137.003 324.019 137.715 324.019 138.309 324.415 139.022 324.547 139.259 324.547 139.615 324.679 139.853 324.811 139.972 324.943 140.565 325.075 140.565 325.34 140.684 325.34 141.04 325.34 141.159 325.472 141.278 325.472 141.515 325.604 141.515 325.604 141.634 325.868 141.515 326 141.634 326 141.634 326 141.634 326 141.634 325.736 141.634 325.34 141.871 325.868 142.228 326.264 142.465 326.132 142.94 326.528 143.296 326.66 143.415 326.792 143.296 326.792 143.534 326.925 143.653 326.792 144.009 326.925 144.009 327.057 144.009 327.453 144.009 327.453 144.246 327.453 144.484 327.321 144.484 327.453 144.721 327.717 145.077 327.981 145.315 328.113 145.79 328.113 145.909 327.981 146.027 327.981 146.027 327.981 146.265 328.113 146.384 328.245 146.502 328.377 146.74 328.509 146.977 328.642 147.333 328.774 147.571 328.906 147.69 328.906 148.046 328.906 148.283 328.906 148.64 328.906 148.996 328.906 149.352 328.906 149.708 329.038 150.065 329.038 150.183 329.302 150.302 329.434 150.421 329.434 150.658 329.302 150.896 329.566 151.133 329.698 151.133 329.83 151.489 329.83 151.608 329.962 151.964 330.094 152.439 330.358 152.914 330.491 153.152 330.491 153.271 330.755 153.389 330.887 153.627 331.283 153.508 331.415 153.745 331.679 154.102 331.943 154.339 332.34 154.695 332.472 154.814 332.472 155.17 332.472 155.289 332.736 155.645 332.736 155.764 333 156.002 333.132 156.239 333 156.477 333.264 156.714 333.396 156.951 333.396 157.189 333.528 157.426 333.528 157.664 333.66 157.664 333.792 157.901 333.792 158.139 333.66 158.376 333.792 158.614 333.925 158.733 334.057 159.089 334.189 159.208 334.453 159.326 334.321 159.683 334.453 159.683 334.453 159.683 334.453 159.683 334.453 159.683 334.453 159.683 334.585 159.564 334.585 159.564 334.585 159.564 334.585 159.564 334.585 159.564 334.717 159.564 334.717 159.801 334.849 159.92 334.849 159.92 334.849 159.92 334.849 159.92 334.849 159.92 334.981 160.039 335.113 160.157 335.245 160.395 335.377 160.514 335.245 160.514 335.245 160.514 335.245 160.514 335.245 160.514 334.981 160.514 334.849 160.039 334.585 160.039 334.585 160.039 334.585 160.039 334.585 160.039 334.321 160.039 334.585 160.632 334.717 160.751 334.981 161.345 334.981 161.939 335.113 162.532 335.245 162.889 335.509 163.007 335.509 163.245 335.642 163.601 335.377 163.838 335.774 164.076 336.038 164.313 336.038 164.551 336.17 164.788 336.302 165.145 336.698 165.263 336.962 165.62 337.226 165.738 337.491 166.095 337.755 166.095 337.755 166.095 337.755 166.095 337.887 166.095 337.887 166.095 337.887 166.095 337.887 166.095 338.151 166.095 338.019 166.332 338.283 166.569 338.679 167.163 339.34 166.926 339.736 167.401 340 167.638 340.132 167.757 340.396 167.757 340.66 167.757 340.925 167.401 341.321 167.163 341.717 166.807 342.377 166.569 342.906 166.332 343.434 166.332 343.434 165.382 343.302 165.026 343.302 164.907 343.302 164.551 343.434 164.313 343.434 164.195 343.962 163.838 344.226 163.838 344.226 163.838 344.226 163.838 344.226 163.838 344.358 163.838 344.491 163.838 344.623 163.838 344.887 163.838 345.019 163.72 345.283 163.72 345.679 163.601 345.943 163.72 346.34 163.601 346.472 163.601 347 163.601 347 163.363 347.132 163.363 347.264 163.245 347.132 163.126 347 163.007 347 162.889 346.736 162.77 346.075 162.176 346.604 161.701 347.132 161.226 347.264 160.989 347.528 160.751 347.792 160.514 347.925 160.514 347.528 160.157 347.792 159.92 347.925 159.801 348.057 159.564 348.321 159.564 348.321 159.564 348.453 159.683 348.453 159.683 348.717 159.801 348.981 159.801 349.245 159.801 349.377 159.801 349.509 159.801 349.642 159.801 349.906 159.683 350.434 159.683 350.566 159.445 350.698 159.326 350.566 159.326 350.434 159.208 350.302 159.089 350.302 158.851 350.302 158.733 350.302 158.495 350.434 158.139 350.302 157.901 350.17 157.545 350.17 157.189 350.17 156.951 350.302 156.595 350.302 156.358 350.038 156.002 349.906 155.764 349.642 155.408 350.038 155.17 350.434 154.933 349.906 154.814 349.906 154.458 350.038 154.22 350.17 153.983 350.17 153.627 350.302 153.271 350.302 153.271 350.698 152.914 350.83 152.914 351.491 152.321 351.491 152.202 351.491 152.083 350.962 151.846 350.962 151.608 350.962 151.608 351.623 151.371 351.755 151.252 352.019 151.014 352.151 150.658 352.283 150.421 352.547 150.065 352.415 149.708 352.415 149.352 352.283 148.996 352.151 148.64 351.887 148.521 351.623 148.402 351.226 148.283 351.358 148.046 351.358 148.046 351.358 147.927 351.491 147.927 351.623 147.927 351.755 148.046 351.887 148.165 352.019 148.165 352.019 148.283 352.151 148.283 352.151 148.283 352.151 148.165 352.151 147.927 352.019 147.452 351.755 147.096 351.623 146.621 351.491 146.384 351.094 146.027 351.358 145.79 351.623 145.552 351.887 145.434 351.755 145.077 351.623 144.484 351.358 144.009 351.226 143.415 350.962 142.703 351.226 142.346 351.623 141.871 351.755 141.753 352.019 141.278 352.019 141.04 352.019 140.921 352.415 140.684 352.547 140.684 352.811 140.565 352.943 140.565 353.208 140.447 353.34 140.447 353.34 140.447 353.34 140.447 353.736 140.447 353.736 140.803 354 141.04 354.132 141.04 354.132 141.04 354.132 141.04 354.528 141.04 355.057 140.328 355.189 140.09 355.321 139.853 355.321 139.615 355.585 139.615 355.717 139.497 355.849 138.665 355.849 138.547 355.981 138.428 356.113 138.428 356.245 138.428 356.377 138.428 356.642 138.547 356.774 138.547 356.906 138.784 357.17 138.784 357.302 138.784 357.434 138.784 357.566 138.784 357.83 138.784 358.094 138.665 358.491 138.428 358.887 138.309 359.415 138.072 359.547 137.953 359.943 137.715 360.208 137.597 360.075 136.884 360.075 136.647 360.075 136.528 359.811 136.409 359.811 136.172 359.679 135.816 360.075 135.934 360.34 135.816 360.472 135.697 360.736 135.578 360.868 135.459 361.132 135.341 361.264 135.103 361.396 134.984 361.792 134.866 362.321 134.866 362.717 134.628 363.113 134.391 363.774 134.035 363.906 133.56 363.906 132.966 364.038 132.61 364.566 132.372 365.094 132.016 365.755 132.016 366.283 131.66 366.811 131.303 367.075 130.71 367.472 130.235 367.604 129.997 367.868 129.76 368.132 129.641 368.264 129.522 368.528 129.404 368.528 129.047 368.396 128.572 369.057 128.572 369.321 127.979 369.453 127.741 369.849 127.623 370.245 127.385 370.245 127.266 370.509 127.266 370.509 127.148 370.509 127.148 370.774 126.673 370.774 126.673 370.906 126.673 371.038 126.791 371.17 126.791 371.17 126.791 371.17 126.791 371.17 126.791 371.434 126.791 371.566 126.673 371.698 126.673 371.962 126.554 372.226 126.316 372.491 126.198 373.151 125.96 374.075 125.723 374.604 125.248 375.132 124.654 376.057 124.298 375.925 123.348 375.792 123.229 376.189 122.992 376.321 122.873 376.585 122.635 376.717 122.16 376.585 121.804 376.585 121.448 376.189 121.329 375.925 121.092 375.792 120.736 376.189 120.379 376.453 120.261 376.717 119.904 377.245 120.142 377.509 119.786 377.774 119.667 378.302 119.667 378.566 119.667 378.83 119.548 379.226 119.667 379.226 119.311 379.358 119.073 379.358 119.073 379.755 118.954 379.887 118.836 379.755 118.242 379.887 118.242 380.151 118.242 380.019 118.836 380.151 118.954 380.151 118.954 380.151 118.954 380.151 118.954 380.415 118.954 380.943 118.836 381.075 118.836 381.472 118.836 381.604 118.717 381.736 118.361 381.736 118.361 381.868 118.361 381.868 118.361 382 118.361 382.132 118.361 382.396 118.361 382.528 118.479 382.66 118.479 382.792 118.479 383.057 118.479 383.189 118.479 383.321 118.242 383.585 117.648 383.453 117.173 383.057 116.698 383.057 116.58 382.925 116.223 382.925 115.986 382.792 115.748 382.792 115.63 382.66 115.392 382.396 115.036 382.66 114.799 382.66 114.561 382.528 114.086 382.396 113.967 382.792 113.611 382.925 113.374 382.66 113.017 382.264 112.899 382 112.78 381.868 112.899 382 112.542 382 112.067 381.868 111.83 381.472 111.711 381.075 111.474 381.075 111.118 381.34 110.88 381.736 110.524 381.604 110.405 381.604 110.049 381.604 109.811 381.736 109.455 381.604 109.099 381.472 108.98 381.34 108.861 381.075 108.861 380.943 108.861 380.811 108.861 380.679 108.861 380.547 108.861 380.547 108.861 380.415 108.861 380.151 108.861 380.019 108.861 380.019 108.861 379.623 108.624 378.962 107.674 379.755 107.555 380.151 107.555 380.283 107.199 380.283 106.843 380.283 106.487 380.415 106.605 380.811 106.368 381.075 106.13 382.528 106.487 382.264 105.655 382.132 105.299 382.264 105.181 381.736 105.062 381.34 104.943 381.604 104.468 381.34 104.349 381.208 104.349 381.208 104.349 381.208 104.349 381.075 104.349 380.943 104.468 380.943 104.468 380.811 104.468 380.679 104.468 380.547 104.468 380.547 104.468 380.415 104.468 380.415 104.468 380.283 104.112 379.887 104.112 379.755 103.874 379.623 103.637 379.491 103.637 379.226 103.637 378.962 103.518 379.226 103.043 379.358 102.924 379.358 102.449 379.755 102.449 380.019 102.093 380.019 102.093 380.019 102.093 380.151 102.093 380.283 102.093 380.415 102.568 380.547 102.687 380.679 102.806 380.943 103.043 381.208 103.043 381.208 103.043 381.34 103.043 381.34 102.924 381.604 102.806 381.34 102.449 381.604 102.331 381.604 102.331 381.604 102.331 381.736 102.331 382 102.331 382.396 102.687 382.528 102.924 382.792 103.043 382.925 103.043 383.189 103.162 383.321 103.281 383.453 103.281 383.585 103.281 383.717 103.281 383.981 103.162 384.245 102.924 384.377 102.924 384.377 102.924 384.377 102.924 384.642 102.924 384.509 103.281 384.377 103.518 384.245 103.756 384.377 103.993 384.642 104.231 384.774 104.231 384.377 105.062 384.377 105.181 384.377 105.537 384.642 105.655 384.906 105.774 385.302 105.774 385.698 105.893 385.962 105.893 386.358 106.012 386.623 106.012 387.019 106.13 387.019 106.13 387.151 106.13 387.283 106.13 387.415 106.13 387.547 106.012 387.679 106.012 387.943 105.893 388.075 105.893 388.208 105.893 388.34 105.893 388.34 105.893 388.34 105.893 388.604 105.893 388.604 105.893 388.736 105.893 389 105.893 389.264 105.774 389.528 105.774 389.66 105.774 389.66 105.774 389.792 105.774 389.925 105.774 390.057 105.774 390.189 105.774 390.321 105.893 390.453 105.893 390.585 105.893 390.717 105.893 390.717 105.893 390.849 105.893 390.849 105.893 390.981 105.893 390.981 105.893 391.113 105.893 391.245 105.893 391.245 105.893 391.377 105.893 391.509 105.893 391.642 105.893 391.774 105.893 391.906 105.893 392.038 105.774 392.17 105.774 392.434 105.655 392.698 105.655 392.83 105.655 393.094 105.774 393.226 105.893 393.226 106.012 393.094 106.13 392.962 106.13 392.962 106.368 393.094 106.487 393.094 106.605 393.094 106.724 393.094 106.843 392.962 106.962 392.962 107.08 392.962 107.318 392.962 107.437 392.83 107.555 392.698 107.674 392.566 107.674 392.17 107.674 392.302 108.149 392.302 108.387 392.17 108.387 392.038 108.387 392.038 108.387 391.509 108.387 391.113 108.861 390.585 109.099 389.925 109.336 389.792 110.049 389.66 110.643 389.66 111.474 390.453 111.949 390.321 112.661 390.321 112.78 390.189 113.611 390.453 113.611 390.585 113.611 390.585 113.611 390.585 113.492 390.849 113.374 390.981 113.611 391.245 113.255 390.981 113.611 391.509 113.849 391.906 113.849 392.038 113.849 392.038 113.849 392.17 113.849 392.302 113.73 392.566 113.611 392.698 113.492 392.83 113.255 392.698 113.017 392.698 112.78 392.698 112.542 392.698 112.305 392.83 112.067 392.962 111.83 393.094 111.711 393.094 111.474 393.094 111.355 393.094 111.236 393.226 110.999 393.358 110.88 393.358 110.88 393.358 110.88 393.491 110.88 393.491 111.118 393.623 111.118 394.151 111.355 393.887 111.593 393.887 111.949 393.887 112.305 394.283 112.424 394.415 112.661 394.547 112.78 394.415 113.255 394.283 113.492 394.019 113.849 394.415 113.967 394.679 114.205 394.943 114.561 394.811 114.799 394.811 115.155 394.811 115.392 395.075 115.392 395.075 115.63 395.075 115.748 394.943 115.867 394.943 116.105 394.943 116.342 395.208 116.58 395.34 116.936 395.34 117.292 395.208 117.53 395.472 117.767 395.604 117.886 395.604 117.886 395.736 117.886 395.868 117.886 396 117.648 396.132 117.53 396.132 117.53 396.132 117.53 396.132 117.53 396.132 117.53 396.792 117.767 396.792 117.767 396.792 117.767 396.925 117.767 396.925 117.767 397.189 117.767 397.189 117.292 397.321 117.173 397.453 116.936 397.585 116.698 397.717 116.461 397.981 116.105 397.585 115.867 397.717 115.511 397.717 114.917 397.453 114.324 397.321 113.73 397.321 113.492 397.189 113.136 397.717 113.136 398.245 113.017 398.245 112.78 398.377 112.424 398.377 112.067 397.981 111.83 398.113 111.474 398.113 111.118 398.377 111.118 398.377 110.643 398.245 110.286 397.981 109.93 398.245 109.574 398.377 109.455 398.377 109.336 398.509 109.336 398.642 109.336 398.642 109.455 398.774 109.455 398.906 109.574 399.038 109.693 399.17 109.693 399.17 109.693 399.17 109.693 399.17 109.693 399.302 109.693 399.302 109.455 399.434 109.455 399.434 109.455 399.566 109.455 399.566 109.455 399.698 109.455 399.83 109.574 399.962 109.574 400.094 109.574 400.094 109.574 400.094 109.574 400.358 109.574 400.755 109.455 400.887 109.218 401.019 108.98 400.755 108.861 400.755 108.624 400.887 108.387 400.887 107.793 401.019 107.555 401.151 107.437 401.415 107.437 401.547 107.318 401.547 107.199 401.547 106.962 401.547 106.724 401.679 106.487 402.075 106.249 402.075 105.893 402.208 105.537 402.075 105.181 402.208 104.824 402.208 104.706 401.679 104.587 401.547 104.231 401.547 103.993 402.208 103.637 402.34 103.518 402.604 103.281 402.736 102.924 402.868 102.568 403.132 102.331 403 101.856 403.132 101.5 403.264 101.025 403.132 100.668 403 100.312 402.868 99.9559 402.604 99.5997 403 99.3622 403.264 99.1247 403.528 99.2435 403.792 99.1247 404.057 98.8873 404.321 98.6498 404.453 98.2936 404.585 97.9373 404.849 97.8186 405.113 97.4624 405.377 97.2249 405.509 96.8687 405.774 96.6312 406.038 96.5125 406.302 96.5125 406.566 96.275 406.566 96.275 406.698 96.275 406.83 96.275 406.83 96.275 406.83 96.275 406.83 96.275 406.962 96.275 406.962 96.275 406.962 96.275 407.094 96.275 407.094 96.275 407.226 96.1562 407.491 96.1562 407.623 96.0375 407.755 96.0375 407.887 96.0375 407.887 96.0375 408.019 96.275 408.283 96.5125 408.547 96.6312 408.943 96.7499 409.075 96.7499 409.075 96.7499 409.208 96.7499 409.34 96.7499 409.472 96.6312 409.472 96.275 409.472 95.8 408.547 95.6813 408.415 95.0876 408.283 94.6126 408.547 94.6126 408.811 94.4939 409.075 94.2564 409.34 94.0189 409.604 93.7814 409.868 93.5439 410 93.4252 409.736 93.069 409.604 92.9502 409.472 92.9502 409.472 92.8315 409.34 92.594 409.736 92.4753 409.604 92.3565 409.604 92.2378 409.075 92.2378 408.943 92.119 408.811 92.119 408.679 92.119 408.547 92.119 408.415 92.119 408.283 92.119 408.151 92.119 408.019 92.2378 408.019 92.2378 408.019 92.2378 407.755 92.2378 407.491 91.8816 407.226 91.7628 407.226 91.7628 407.094 91.7628 407.094 91.7628 406.83 91.7628 406.434 92.0003 406.17 92.119 406.17 92.119 406.038 92.119 406.038 92.119 405.774 92.119 406.038 91.7628 406.17 91.7628 406.434 91.5253 406.698 91.2879 406.83 91.0504 406.962 90.8129 407.094 90.5754 406.698 90.4567 406.302 90.4567 406.434 90.1004 406.434 89.863 406.434 89.7442 406.302 89.7442 406.038 89.7442 405.906 89.7442 405.774 89.7442 405.774 89.863 405.774 90.1004 405.774 90.1004 405.642 90.2192 405.642 90.2192 405.509 90.2192 405.509 90.2192 405.377 90.2192 405.245 90.2192 405.377 90.1004 405.377 89.7442 405.509 89.7442 405.774 89.388 406.038 89.1505 405.906 88.7943 405.509 88.7943 405.245 88.7943 405.377 88.7943 405.113 88.5568 404.981 88.3193 404.849 88.3193 404.717 88.3193 404.585 88.3193 404.321 88.4381 404.189 88.5568 403.925 88.7943 403.528 89.0318 403.264 89.2693 403.132 89.388 403 89.9817 402.736 89.9817 402.736 89.9817 402.604 89.9817 402.604 89.9817 402.208 89.9817 402.075 89.863 401.811 89.7442 401.679 89.7442 401.547 89.7442 401.547 89.7442 401.415 89.7442 401.415 89.7442 401.415 89.7442 401.415 89.7442 401.283 89.7442 401.283 89.7442 401.151 89.7442 401.019 89.7442 400.887 89.6255 400.755 89.5067 400.226 89.5067 400.226 89.2693 400.226 89.1505 400.226 89.0318 400.226 89.0318 400.094 89.0318 399.83 89.388 399.698 89.5067 399.566 89.7442 399.17 89.863 398.906 89.9817 398.774 90.2192 398.774 90.5754 398.642 90.6942 398.377 91.0504 398.113 91.2879 397.981 91.5253 397.849 91.7628 397.321 91.7628 397.057 91.7628 396.925 91.8816 396.792 92.0003 396.66 92.0003 396.66 92.0003 396.66 92.0003 396.66 92.0003 396.528 92.0003 396.264 91.8816 396.132 91.8816 396 91.8816 395.868 92.0003 395.868 92.0003 395.604 92.119 395.472 92.4753 395.472 92.7127 395.34 92.8315 395.604 93.1877 395.34 93.3064 395.208 93.4252 394.811 93.3064 394.547 93.4252 394.415 93.5439 394.151 93.7814 394.019 93.9002 393.887 94.1376 393.623 94.1376 393.623 94.3751 393.491 94.6126 393.887 94.8501 393.755 94.9688 393.491 95.0876 393.358 95.325 393.094 95.4438 393.094 95.4438 392.962 95.4438 392.962 95.4438 392.962 95.4438 392.83 95.325 392.83 95.325 392.698 95.325 392.698 95.325 392.566 95.325 392.566 95.325 392.566 95.325 392.566 95.325 392.17 95.325 391.377 95.5625 391.113 95.8 391.113 95.8 390.981 95.8 390.981 95.8 390.849 95.8 390.717 95.6813 390.585 95.5625 390.453 95.4438 390.321 95.325 390.189 95.325 390.057 95.325 390.057 95.4438 389.925 95.4438 389.792 95.5625 390.057 95.9187 389.925 96.1562 389.925 96.3937 390.189 96.6312 390.189 96.8687 390.189 96.9874 391.377 97.1062 391.509 97.1062 391.774 97.2249 392.17 97.3436 391.906 97.5811 391.774 97.9373 391.906 98.1748 391.774 98.531 391.774 98.7685 391.642 98.7685 391.509 98.7685 391.509 98.7685 391.377 98.7685 391.377 98.7685 391.245 98.7685 391.245 98.7685 391.245 98.7685 390.981 98.7685 390.849 98.7685 390.717 99.006 390.717 99.006 390.585 99.006 390.453 99.006 390.453 99.006 390.321 99.006 390.321 99.006 390.321 99.006 390.321 99.006 390.189 99.006 390.189 99.006 390.057 99.006 389.925 99.1247 389.792 99.2435 389.66 99.2435 389.396 99.2435 389.396 99.2435 389.264 99.2435 389.264 99.2435 389.132 99.2435 389.132 99.2435 389 99.2435 389 99.2435 389 99.2435 389 99.2435 388.472 99.2435 387.943 99.481 387.547 99.481 387.283 99.481 387.151 99.481 386.887 99.3622 386.623 99.1247 386.491 99.1247 386.226 99.1247 386.094 99.1247 385.83 99.2435 385.566 99.3622 385.434 99.481 385.302 99.5997 385.17 99.5997 385.17 99.5997 385.17 99.5997 385.17 99.5997 385.038 99.5997 384.906 99.5997 384.774 99.5997 384.642 99.5997 384.642 99.5997 384.509 99.5997 384.509 99.7184 384.509 99.9559 384.377 99.9559 384.377 99.9559 384.245 99.9559 384.245 99.9559 384.113 99.8372 383.981 99.7184 383.981 99.7184 383.981 99.7184 383.981 99.7184 383.981 99.7184 383.849 99.5997 383.849 99.5997 383.717 99.5997 383.717 99.5997 383.717 99.5997 383.717 99.5997 383.717 99.5997 383.585 99.5997 383.585 99.5997 383.585 99.5997 383.453 99.5997 383.321 99.5997 383.321 99.481 383.321 99.481 383.189 99.3622 383.189 99.3622 383.057 99.3622 383.057 99.3622 382.925 99.3622 382.792 99.3622 382.66 99.481 382.528 99.5997 382.396 99.7184 382.396 99.7184 382.396 99.7184 382.396 99.7184 382.396 99.7184 382.132 99.5997 381.868 99.2435 381.604 99.1247 381.34 99.006 381.208 98.7685 381.075 98.531 380.943 98.4123 381.472 98.0561 381.34 97.8186 381.208 97.6999 381.075 97.6999 380.943 97.5811 380.811 97.4624 380.943 97.3436 380.811 97.2249 380.679 97.2249 381.208 96.6312 381.208 96.5125 381.075 96.0375 381.208 96.0375 380.943 95.6813 380.679 95.325 380.415 95.2063 380.283 95.2063 380.019 95.2063 379.887 95.325 379.623 95.5625 379.358 95.8 379.358 95.8 378.962 95.8 378.83 95.8 378.302 95.8 378.302 95.9187 378.17 96.1562 378.17 96.3937 378.302 96.5125 378.698 96.8687 378.434 96.9874 378.17 97.2249 378.038 97.5811 378.038 97.8186 377.906 98.1748 377.906 98.4123 377.642 98.6498 377.642 98.8873 377.642 99.2435 378.038 99.5997 378.17 99.8372 378.434 100.193 378.434 100.787 378.434 101.025 378.434 101.143 378.434 101.5 378.302 101.5 378.17 101.5 378.17 101.5 378.17 101.5 378.038 101.381 378.038 101.381 377.906 101.381 377.774 101.381 377.642 101.381 377.509 101.5 377.113 101.618 376.585 101.618 376.057 101.618 376.057 101.618 375.925 101.618 375.925 101.618 375.396 101.618 375.132 101.262 374.736 101.143 374.736 101.143 374.604 101.143 374.604 101.143 374.34 101.143 374.208 101.381 373.943 101.5 373.943 101.5 373.811 101.5 373.679 101.5 373.415 101.5 373.151 101.5 372.887 101.381 372.755 101.262 372.623 100.906 372.358 100.906 372.358 100.906 372.358 100.906 372.226 100.906 372.094 100.906 372.094 101.025 371.962 101.025 371.83 101.025 371.83 101.025 371.83 101.025 371.698 101.025 371.566 100.906 371.302 100.787 371.302 100.787 371.302 100.787 371.17 100.787 371.17 100.787 371.038 100.787 371.038 100.906 370.906 100.906 370.906 100.906 370.774 100.906 370.774 100.906 370.642 100.906 370.509 100.787 370.377 100.55 370.377 100.312 369.981 100.193 369.981 100.193 369.981 100.193 369.849 100.193 369.585 100.193 369.585 100.431 369.321 100.55 369.189 100.55 369.189 100.55 369.189 100.55 368.925 100.55 368.792 100.431 368.528 100.193 368.264 99.9559 367.075 99.9559 366.943 99.5997 366.943 99.2435 366.943 99.006 366.679 98.6498 366.547 98.531 366.415 98.4123 366.283 98.4123 366.283 98.4123 366.151 98.4123 366.151 98.4123 366.019 98.4123 365.887 98.531 365.887 98.531 365.755 98.531 365.755 98.531 365.755 98.4123 365.491 98.4123 365.491 98.1748 365.358 98.0561 365.226 97.9373 364.83 97.9373 364.698 97.9373 364.566 97.9373 364.566 97.9373 364.434 97.9373 364.17 98.0561 363.774 98.1748 363.509 98.4123 363.509 98.4123 362.849 98.1748 362.849 98.1748 362.849 98.1748 362.849 98.1748 362.849 98.1748 362.717 98.1748 362.453 98.2936 362.321 98.4123 362.321 98.4123 362.321 98.6498 362.189 98.6498 362.189 98.6498 361.66 98.4123 361.528 98.4123 361.528 98.4123 361.528 98.4123 361.396 98.4123 361.396 98.4123 361.264 98.4123 361.264 98.4123 361.132 98.4123 361.132 98.4123 361.132 98.4123 360.868 98.4123 360.736 98.4123 360.604 98.4123 360.472 98.2936 360.604 97.9373 360.604 97.8186 360.472 97.5811 360.208 97.5811 359.943 97.5811 359.811 97.5811 359.679 97.5811 359.547 97.5811 359.415 97.5811 359.283 97.8186 359.151 97.8186 359.019 97.8186 359.019 97.6999 358.887 97.6999 358.755 97.4624 358.358 97.2249 358.094 97.1062 357.83 97.1062 357.698 96.9874 357.566 96.9874 357.434 96.9874 357.302 96.9874 357.17 97.1062 357.17 97.1062 357.038 97.1062 356.906 97.1062 356.642 97.1062 356.642 96.8687 356.377 96.7499 356.113 96.6312 355.717 96.6312 355.585 96.275 355.585 96.1562 355.585 95.9187 355.453 95.9187 355.453 95.8 355.453 95.8 355.321 95.8 355.321 95.8 355.189 95.9187 355.321 96.0375 354.66 95.8 354.528 95.0876 353.868 95.0876 353.208 94.9688 352.811 94.9688 352.415 94.3751 352.283 94.2564 352.151 94.1376 352.151 94.1376 352.019 94.1376 352.019 94.3751 351.755 94.4939 351.755 94.4939 351.755 94.4939 351.755 94.4939 351.491 94.4939 350.698 93.9002 350.566 93.7814 350.302 93.6627 350.302 93.4252 350.566 93.3064 350.962 93.3064 350.83 93.069 350.83 92.8315 350.83 92.594 351.094 92.4753 351.226 92.2378 351.226 92.0003 350.962 91.7628 351.094 91.4066 351.358 91.1691 351.491 91.1691 351.491 90.8129 351.491 90.6942 351.623 90.5754 351.755 90.4567 351.887 90.3379 352.019 90.1004 352.151 89.9817 352.283 89.7442 352.679 89.7442 352.811 89.5067 352.943 89.1505 353.736 88.6756 353.208 88.4381 352.943 88.3193 352.943 88.0819 352.679 87.8444 352.547 87.7256 352.547 87.6069 352.415 87.6069 352.283 87.6069 352.283 87.6069 352.283 87.6069 352.151 87.7256 352.151 87.7256 352.019 87.7256 352.019 87.7256 352.019 87.7256 351.887 87.7256 351.623 87.6069 351.623 87.4882 351.491 87.4882 351.491 87.4882 351.358 87.4882 351.358 87.4882 351.358 87.4882 351.226 87.4882 351.226 87.4882 351.094 87.4882 351.094 87.2507 350.962 87.1319 350.962 86.7757 350.566 86.182 350.17 86.182 350.038 86.182 350.038 86.182 350.038 86.182 350.038 86.182 350.038 86.182 349.906 86.182 349.774 86.182 349.642 85.9445 349.377 85.9445 349.113 85.8258 348.981 85.8258 348.717 85.8258 348.321 85.8258 347.792 85.707 347.792 85.2321 347.792 84.8759 347.528 84.2822 347 84.1634 347 84.1634 347 84.1634 346.868 84.1634 346.472 84.1634 346.208 84.8759 346.34 84.8759 346.075 84.8759 345.943 84.6384 345.943 84.5196 345.943 84.2822 345.811 84.2822 345.679 84.1634 345.679 83.8072 346.472 83.6885 346.075 83.3322 345.679 82.976 345.943 82.6198 345.943 82.1448 345.943 82.0261 345.547 81.9073 345.547 81.7886 345.415 81.5511 345.415 81.5511 345.547 81.4324 345.679 81.3136 345.019 81.3136 345.019 81.1949 345.019 80.9574 345.019 80.6012 345.019 80.3637 345.019 80.245 345.019 79.8887 345.283 79.8887 345.283 79.8887 345.415 79.8887 345.415 79.8887 345.943 80.1262 345.679 80.245 345.943 80.7199 345.943 80.8387 346.34 81.1949 346.604 81.1949 346.604 81.1949 346.604 81.1949 346.736 81.1949 347.132 80.9574 346.868 80.9574 347 80.6012 347 80.3637 347.528 80.4825 347.528 80.245 347.66 80.1262 348.189 80.1262 348.321 80.1262 348.849 79.8887 348.981 79.5325 348.717 79.0576 348.453 78.5826 347.528 78.4639 348.057 77.7514 348.453 77.2765 347.528 77.039 347 77.039 347 77.039 346.868 77.039 346.868 77.039 346.868 77.039 346.868 77.039 346.736 77.039 346.472 77.039 346.34 76.9202 346.472 76.4453 346.472 76.3265 346.472 76.0891 346.472 75.9703 346.604 75.7328 346.868 75.7328 347 75.4953 347 75.4953 346.868 75.1391 346.868 75.1391 346.736 75.0204 346.736 75.0204 346.736 75.0204 346.736 75.0204 346.604 75.0204 346.604 75.0204 346.604 75.0204 346.604 75.0204 346.472 75.0204 346.472 75.0204 346.472 75.0204 346.34 74.9016 346.208 74.7829 346.208 74.6642 346.34 74.5454 346.472 74.4267 346.604 74.3079 346.736 74.3079 346.868 74.3079 347.132 74.5454 347.396 74.5454 347.528 74.6642 347.792 74.7829 347.925 74.7829 348.057 74.7829 348.189 74.6642 348.189 74.5454 348.189 74.3079 348.453 74.3079 348.585 74.0705 348.717 73.7142 348.717 73.4768 348.849 73.1205 348.849 73.0018 349.377 73.0018 349.509 72.883 349.906 72.7643 349.377 72.4081 349.774 72.2893 349.774 72.1706 349.906 72.1706 350.038 72.1706 350.038 72.1706 350.038 72.1706 350.038 72.1706 350.17 72.1706 350.17 72.1706 350.17 72.1706 350.302 72.1706 350.302 72.1706 350.434 72.1706 350.83 71.9331 350.698 71.6956 350.698 71.4582 350.698 71.1019 350.83 70.8645 350.962 70.5082 350.962 70.2708 351.358 70.152 351.358 69.9145 351.491 69.677 351.491 69.2021 351.358 68.9646 351.358 68.7271 350.83 68.4896 350.566 68.3709 350.17 68.0147 350.17 67.8959 349.509 67.8959 349.245 67.8959 348.717 67.6585 348.585 67.5397 348.453 67.421 348.321 67.1835 348.189 67.1835 348.189 67.1835 348.057 67.1835 348.057 67.1835 347.66 67.3022 347.396 67.5397 347 67.6585 347 67.6585 347 67.6585 347 67.6585 346.868 67.6585 346.736 67.6585 346.604 67.6585 346.34 67.5397 346.208 67.5397 346.208 67.5397 346.075 67.5397 346.075 67.5397 346.075 67.5397 345.943 67.8959 345.679 67.8959 345.283 67.8959 345.283 67.8959 345.151 67.8959 345.019 67.8959 345.019 67.8959 344.887 67.8959 344.887 67.8959 344.623 67.8959 344.491 67.8959 344.358 68.0147 343.962 68.1334 344.094 68.4896 343.698 68.6084 343.434 68.8459 342.906 68.9646 342.509 68.9646 342.377 68.9646 342.245 69.0833 342.245 69.0833 342.245 69.2021 342.113 69.2021 342.113 69.2021 341.981 69.2021 341.849 69.0833 341.849 69.0833 341.453 69.0833 341.585 68.8459 341.453 68.6084 341.189 68.0147 340.925 67.8959 340.396 67.8959 340.264 67.8959 340.132 67.8959 340 67.8959 340 67.8959 339.868 67.8959 339.868 67.8959 339.208 67.8959 339.075 67.421 338.943 66.946 338.811 66.5898 338.811 66.5898 338.415 66.471 338.151 66.3523 338.019 65.8773 337.755 65.7586 337.358 65.7586 337.094 65.6399 336.698 65.5211 336.302 65.4024 336.434 65.0462 336.17 64.8087 335.774 64.5712 335.377 64.3337 335.113 63.8588 334.981 63.6213 334.981 63.74 334.717 63.5025 334.453 63.3838 334.717 63.1463 334.453 63.0276 334.321 63.0276 334.321 63.0276 334.189 63.0276 334.057 63.0276 334.057 63.1463 333.792 63.1463 333.792 63.1463 333.66 63.265 333.66 63.265 333.66 63.265 333.528 63.1463 333.528 63.1463 333.396 63.1463 333.396 63.1463 333.264 63.1463 333.264 63.1463 333.264 63.1463 333.132 63.265 333.132 63.265 333.132 63.3838 333 63.3838 332.868 63.3838 332.604 63.265 332.604 63.1463 332.472 63.0276 332.34 62.9088 332.208 62.9088" fill="#6A4742" fill-rule="evenodd"/><g clip-path="url(#clip28)"><g clip-path="url(#clip29)"><g clip-path="url(#clip30)"><path d="M41.1383 140.616C39.5077 140.418 39.432 140.271 39.2257 136.903 39.1276 135.299 38.9557 133.025 38.8442 131.85 38.4542 127.749 38.6001 127.905 21.4449 113.335 11.7505 105.102 9.45258 102.816 7.94651 99.9067 6.94067 97.9637 6.26481 96.1034 3.91791 88.818 1.18192 80.3251 0.895627 79.0313 0.40055 72.9229-0.1582 66.0284-0.142743 64.5317 0.512284 62.0902 2.32757 55.3237 3.49312 52.2241 4.61294 51.1858 5.88545 50.006 7.88744 50.8345 8.67114 52.8656 9.1659 54.1476 9.16374 59.6177 8.66345 62.5183 8.19921 65.2312 8.21274 65.4622 9.15283 70.8472 10.0532 76.0046 9.80086 75.2271 13.4 83.9349 14.5772 86.7832 15.4151 88.5377 15.7039 88.7592 17.4906 90.13 25.2798 95.4302 25.3722 95.338 25.6438 95.0664 22.8148 89.3222 19.7027 83.8257 18.7182 82.0871 17.4413 79.6948 16.8651 78.5096 15.9476 76.6225 15.8035 76.1523 15.7059 74.7272 15.5434 72.3567 15.7059 71.7707 16.7133 71.0277 18.5244 69.6956 20.8647 70.4558 23.9791 73.3876 26.0772 75.3627 26.6165 76.1297 28.9464 80.4513 29.8943 82.2096 31.0671 84.164 31.5523 84.7944 32.568 86.1138 34.4726 87.6825 37.1789 89.4284 42.0962 92.6006 47.8556 96.458 49.2495 97.5128 53.0076 100.356 55.4329 103.082 57.1023 106.337 59.1565 110.343 59.3351 111.73 59.6141 125.848 59.8336 136.962 59.7791 139.459 59.3024 140.11 59.131 140.345 58.6216 140.522 57.8429 140.619 56.3912 140.8 42.6296 140.797 41.1344 140.616ZM78.7552 140.622C78.0661 140.533 77.5668 140.348 77.3987 140.118 76.9273 139.473 76.8646 136.646 77.0801 125.746 77.368 111.185 77.6101 109.635 80.3357 104.896 81.5324 102.815 84.6932 99.6005 87.8821 97.2208 89.169 96.2605 92.645 93.8987 95.6066 91.9725 98.5682 90.0461 101.797 87.8683 102.782 87.1328 104.802 85.6245 105.509 84.6611 107.964 80.0691 110.015 76.2337 110.327 75.7855 112.376 73.7498 115.273 70.8706 117.69 69.8547 119.546 70.7357 120.753 71.3085 121.046 71.8782 121.046 73.6507 121.046 74.5106 120.899 75.7094 120.719 76.3151 120.341 77.5904 118.868 80.5367 116.655 84.4436 115.138 87.1242 112.019 93.2389 111.49 94.5723 111.345 94.9396 111.275 95.29 111.336 95.3508 111.397 95.4114 113.709 93.8749 116.474 91.9361L121.503 88.4111 122.975 84.7488C123.785 82.7345 124.819 80.2539 125.273 79.2362 126.496 76.4898 126.822 75.2481 127.674 70.072L128.45 65.3651 127.979 61.9811C127.422 57.9748 127.448 54.1859 128.042 52.8052 128.525 51.6829 129.325 50.9051 130.253 50.6552 131.902 50.211 132.957 51.5883 134.468 56.1623 134.931 57.5611 135.602 59.7585 135.96 61.0454 136.589 63.3069 136.611 63.5114 136.594 67.1493 136.577 70.7945 136.095 76.9578 135.664 79.0472 134.867 82.9079 130.512 96.2454 129.085 99.1946 127.224 103.042 125.462 104.785 111.585 116.496 100.104 126.186 98.7824 127.521 98.0746 130.15 97.95 130.612 97.7567 132.828 97.6448 135.074 97.5329 137.32 97.3549 139.385 97.2493 139.662 96.8621 140.681 96.7073 140.699 87.9838 140.731 83.5075 140.748 79.3546 140.698 78.755 140.622ZM64.6815 85.5099C53.6715 78.0716 46.7243 72.6472 40.3854 66.5401 30.2809 56.8049 24.4126 48.5982 21.1361 39.6204 20.3 37.3296 19.4008 33.6348 19.105 31.2756 18.7943 28.7962 18.957 23.6747 19.4117 21.625 20.5493 16.4978 22.8191 12.267 26.4967 8.42027 28.7859 6.02572 31.0077 4.33767 33.5369 3.07128 38.6835 0.494287 42.8842-0.314162 48.4745 0.196441 52.8514 0.596202 56.4067 1.90645 60.4885 4.62395 62.43 5.91632 66.2071 9.4021 67.7218 11.2989L68.3715 12.1128 69.0154 11.2989C71.705 7.89955 75.8426 4.53684 79.6407 2.66363 82.4745 1.26602 84.1754 0.710012 86.8648 0.302231 99.9393-1.68025 112.425 6.25551 116.683 19.2543 118.186 23.8417 118.184 30.5989 116.676 36.0808 112.888 49.8648 102.176 63.1871 83.4041 77.4575 79.47 80.4484 69.3217 87.4943 68.4862 87.8148 68.3475 87.8681 66.6347 86.8308 64.6795 85.5099Z" fill="#6A4742" transform="matrix(1.00349 0 0 1 77 65.9045)"/></g></g></g><g clip-path="url(#clip31)"><g clip-path="url(#clip32)"><g clip-path="url(#clip33)"><path d="M52.8406 94.9508C37.1305 85.355 23.1205 73.4732 13.9405 61.9597 4.3338 49.9113-0.348132 38.142 0.0201483 26.967 0.136833 23.4265 0.517838 21.2252 1.49156 18.4661 4.87928 8.86657 12.9969 2.06106 23.1209 0.332781 25.0754-0.000865602 25.929-0.0481864 28.4568 0.0370508 32.9018 0.186939 35.7329 0.923471 40.1369 3.07577 45.0363 5.47014 50.4612 9.6321 54.2233 13.883 55.0509 14.818 55.835 15.5842 55.9659 15.5857 56.0966 15.5871 56.6853 15.0594 57.2739 14.4128 63.9021 7.13387 71.5452 2.23037 78.9387 0.513621 81.5229-0.0864155 85.9707-0.167167 88.8995 0.332781 99.1837 2.08841 107.377 9.06958 110.657 18.8716 113.446 27.2059 112.06 37.9592 106.855 48.3841 104.442 53.2156 101.831 57.2549 98.0799 61.9597 90.1227 71.9392 78.6308 82.1298 65.2249 91.0941 62.4867 92.9252 56.1782 96.8446 55.9871 96.8335 55.948 96.8312 54.5322 95.9839 52.8406 94.9508Z" fill="#D68D87" transform="matrix(1.017 0 0 1 90 60.9117)"/></g></g></g><path d="M162 101.678 130 101.852C131.691 94.6878 136.823 88.4551 146.181 88.1056 150.589 87.8727 160.792 91.3676 162 101.678Z" fill="#6A4742" fill-rule="evenodd"/><rect x="128" y="101.852" width="37" height="1.99711" fill="#6A4742"/><rect x="130" y="103.849" width="6" height="16.9754" fill="#6A4742"/><rect x="139" y="103.849" width="6" height="16.9754" fill="#6A4742"/><rect x="148" y="103.849" width="5" height="16.9754" fill="#6A4742"/><rect x="157" y="103.849" width="6" height="16.9754" fill="#6A4742"/><rect x="128" y="119.826" width="37" height="4.99277" fill="#6A4742"/><rect x="125" y="124.819" width="43" height="3.99421" fill="#6A4742"/><rect x="146" y="79.8842" width="1" height="7.98843" fill="#6A4742"/><path d="M147 79.8842 149.8 79.8842 149.8 80.328 154 80.3835 153.942 83.8784 149.975 83.8784 149.975 83.4901 147.058 83.6011 147 79.8842Z" fill="#6A4742" fill-rule="evenodd"/><path d="M474 125.833 478.015 125.833 478.015 121.823 480.985 121.823 480.985 125.833 485 125.833 485 128.798 480.985 128.798 480.985 132.808 478.015 132.808 478.015 128.798 474 128.798Z" fill="#D0D0D0" fill-rule="evenodd"/><path d="M457 173.764 461.015 173.764 461.015 169.754 463.985 169.754 463.985 173.764 468 173.764 468 176.728 463.985 176.728 463.985 180.738 461.015 180.738 461.015 176.728 457 176.728Z" fill="#D0D0D0" fill-rule="evenodd"/><path d="M40 31.9691 44.0154 31.9691 44.0154 27.9595 46.9846 27.9595 46.9846 31.9691 51 31.9691 51 34.9339 46.9846 34.9339 46.9846 38.9436 44.0154 38.9436 44.0154 34.9339 40 34.9339Z" fill="#D0D0D0" fill-rule="evenodd"/><path d="M52 120.84 56.0154 120.84 56.0154 116.831 59.9846 116.831 59.9846 120.84 64 120.84 64 123.805 59.9846 123.805 59.9846 127.815 56.0154 127.815 56.0154 123.805 52 123.805Z" fill="#D0D0D0" fill-rule="evenodd"/><path d="M222 180.119 226.38 180.119 226.38 175.745 229.62 175.745 229.62 180.119 234 180.119 234 183.354 229.62 183.354 229.62 187.728 226.38 187.728 226.38 183.354 222 183.354Z" fill="#D0D0D0" fill-rule="evenodd"/><path d="M225 69.2801 229.38 69.2801 229.38 64.9059 232.62 64.9059 232.62 69.2801 237 69.2801 237 72.5144 232.62 72.5144 232.62 76.8886 229.38 76.8886 229.38 72.5144 225 72.5144Z" fill="#D0D0D0" fill-rule="evenodd"/><path d="M129 33.9662 133.015 33.9662 133.015 29.9566 135.985 29.9566 135.985 33.9662 140 33.9662 140 37.9296 135.985 37.9296 135.985 41.9392 133.015 41.9392 133.015 37.9296 129 37.9296Z" fill="#D0D0D0" fill-rule="evenodd"/><path d="M462 50.9416 466.015 50.9416 466.015 46.932 469.985 46.932 469.985 50.9416 474 50.9416 474 53.9064 469.985 53.9064 469.985 57.9161 466.015 57.9161 466.015 53.9064 462 53.9064Z" fill="#D0D0D0" fill-rule="evenodd"/><path d="M46 182.751 50.0154 182.751 50.0154 178.741 52.9846 178.741 52.9846 182.751 57 182.751 57 186.714 52.9846 186.714 52.9846 190.724 50.0154 190.724 50.0154 186.714 46 186.714Z" fill="#D0D0D0" fill-rule="evenodd"/></g></svg>